<svg width="34" height="34" viewBox="0 0 34 34" fill="none" xmlns="http://www.w3.org/2000/svg">
<path d="M2.125 6.375C2.125 5.24783 2.57277 4.16683 3.3698 3.3698C4.16683 2.57277 5.24783 2.125 6.375 2.125H27.625C28.7522 2.125 29.8332 2.57277 30.6302 3.3698C31.4272 4.16683 31.875 5.24783 31.875 6.375V27.625C31.875 29.1975 31.0208 30.5713 29.75 31.3066L28.2136 30.8125C27.1553 30.472 26.0057 30.5597 25.0113 31.0569L23.375 31.875H20.1875L17 30.2812L13.8125 31.875H10.625L8.98875 31.0569C7.99434 30.5597 6.84471 30.472 5.78638 30.8125L4.25 31.3066C3.60378 30.9335 3.06718 30.3968 2.69415 29.7505C2.32113 29.1043 2.12483 28.3712 2.125 27.625V6.375Z" fill="#E1D8EC"/>
<path d="M10.625 11.6875V22.3125H2.125V23.375H10.625V31.875H11.6875V23.375H22.3125V31.875H23.375V23.375H31.875V22.3125H23.375V11.6875H31.875V10.625H23.375V2.125H22.3125V10.625H11.6875V2.125H10.625V10.625H2.125V11.6875H10.625ZM11.6875 11.6875H22.3125V22.3125H11.6875V11.6875Z" fill="#B4ACBC"/>
<path d="M6.375 31.875H10.625V10.8524C10.625 10.1384 10.0438 9.5625 9.32238 9.5625H5.55262C4.83119 9.5625 4.25 10.1384 4.25 10.8513V31.3066C4.87475 31.6678 5.60044 31.875 6.375 31.875Z" fill="#00D26A"/>
<path d="M18.8849 18.0625H15.1151C14.3937 18.0625 13.8125 18.6384 13.8125 19.3524V31.875H20.1875V19.3524C20.1875 18.6384 19.6063 18.0625 18.8849 18.0625Z" fill="#F70A8D"/>
<path d="M23.375 31.875H27.625C28.3996 31.875 29.1252 31.6678 29.75 31.3066V7.65956C29.75 6.94769 29.1688 6.375 28.4474 6.375H24.6776C23.9562 6.375 23.375 6.94875 23.375 7.65956V31.875Z" fill="#00A6ED"/>
</svg>
