<svg width="34" height="34" viewBox="0 0 34 34" fill="none" xmlns="http://www.w3.org/2000/svg">
<g clip-path="url(#clip0_5_5)">
<path d="M29.1656 21.0906L33.0438 25.1281L15.9906 33.6813C15.9906 33.6813 13.7594 34.7969 12.6969 33.0438C8.44687 26.1375 29.1656 21.0906 29.1656 21.0906Z" fill="#256382"/>
<path d="M15.5125 28.6344C15.5125 28.6344 12.2719 29.8562 12.8563 32.1406C13.4938 34.5312 16.0969 33.0969 16.0969 33.0969L32.3 25.1281C32.3 25.1281 31.3969 22.5781 33.0437 20.8781L15.5125 28.6344Z" fill="#D9E3E8"/>
<path d="M18.275 4.72812L33.7875 20.7187L15.4594 28.3156L3.71875 8.87187L18.275 4.72812Z" fill="#42ADE2"/>
<path d="M32.2469 22.6313L21.4094 27.3063L32.0344 22.1531L32.2469 22.6313ZM32.0875 24.0125L20.5594 29.0594L31.875 23.5344L32.0875 24.0125ZM32.1938 24.8094L17.4781 31.5563L31.9813 24.3313L32.1938 24.8094Z" fill="#94989B"/>
<path d="M12.6437 32.9906C10.8375 29.0062 15.4594 28.3156 15.4594 28.3156L3.71875 8.87186C3.71875 8.87186 1.0625 8.81874 1.0625 11.7406C1.0625 12.9625 1.59375 13.8656 1.59375 13.8656L12.6437 32.9906Z" fill="#428BC1"/>
<path d="M4.62187 17.1063L0.74375 21.1438L17.7969 29.6969C17.7969 29.6969 20.0281 30.8125 21.0906 29.0594C25.3406 22.1531 4.62187 17.1063 4.62187 17.1063Z" fill="#547725"/>
<path d="M18.2219 24.65C18.2219 24.65 21.4625 25.8719 20.8781 28.1562C20.2406 30.5469 17.6906 29.1125 17.6906 29.1125L1.4875 21.1437C1.4875 21.1437 2.39062 18.5937 0.74375 16.8937L18.2219 24.65Z" fill="#D9E3E8"/>
<path d="M15.5125 0.743744L0 16.7344L18.3281 24.3312L30.0687 4.88749L15.5125 0.743744Z" fill="#83BF4F"/>
<path d="M1.7 18.1688L12.325 23.3219L1.4875 18.6469L1.7 18.1688ZM1.9125 19.55L13.175 25.075L1.64687 20.0281L1.9125 19.55ZM1.80625 20.3469L16.2563 27.5719L1.54062 20.825L1.80625 20.3469Z" fill="#94989B"/>
<path d="M21.1437 29.0062C22.95 25.0219 18.3281 24.3312 18.3281 24.3312L30.0687 4.88749C30.0687 4.88749 32.725 4.83436 32.725 7.75624C32.725 8.97811 32.1937 9.88124 32.1937 9.88124L21.1437 29.0062Z" fill="#699635"/>
<path d="M30.1219 13.8125L33.3625 17.2125L18.9656 24.3844C18.9656 24.3844 17.0531 25.2875 16.15 23.8531C12.6438 18.0625 30.1219 13.8125 30.1219 13.8125Z" fill="#962C2C"/>
<path d="M18.5937 20.1875C18.5937 20.1875 15.8312 21.1969 16.3625 23.1625C16.8937 25.1813 19.0719 23.9594 19.0719 23.9594L32.725 17.2125C32.725 17.2125 31.9812 15.0875 33.3625 13.6531L18.5937 20.1875Z" fill="#D9E3E8"/>
<path d="M20.9313 0L34 13.4937L18.5406 19.9219L8.60625 3.50625L20.9313 0Z" fill="#ED4C5C"/>
<path d="M21.3031 3.08124L23.8531 5.89686L14.45 9.45624L12.2188 5.84374L21.3031 3.08124Z" fill="white"/>
<path d="M32.725 15.1406L23.5875 19.0188L32.5125 14.6625L32.725 15.1406ZM32.6188 16.3094L22.8438 20.5063L32.4063 15.8313L32.6188 16.3094ZM32.725 16.9469L20.2938 22.6313L32.4594 16.4688L32.725 16.9469Z" fill="#94989B"/>
<path d="M16.2031 23.8531C14.7156 20.5063 18.5938 19.9219 18.5938 19.9219L8.60625 3.50626C8.60625 3.50626 6.32187 3.45313 6.32187 5.89688C6.32187 6.90626 6.74687 7.70313 6.74687 7.70313L16.2031 23.8531Z" fill="#C94747"/>
</g>
<defs>
<clipPath id="clip0_5_5">
<rect width="34" height="34" fill="white"/>
</clipPath>
</defs>
</svg>
