<svg width="16" height="16" viewBox="0 0 16 16" fill="none" xmlns="http://www.w3.org/2000/svg">
<path d="M14.9802 4.01779C14.9802 4.03465 14.9735 4.05082 14.9616 4.06274C14.9496 4.07466 14.9335 4.08136 14.9166 4.08136H12.1163C12.0994 4.08136 12.0833 4.07466 12.0714 4.06274C12.0594 4.05082 12.0527 4.03465 12.0527 4.01779V2.02658C12.0527 1.99148 12.0812 1.96301 12.1163 1.96301H14.9166C14.9517 1.96301 14.9802 1.99148 14.9802 2.02658V4.01779Z" fill="#8F9799"/>
<path d="M14.9843 14.3931H1.03022C0.657443 14.3931 0.355225 14.0909 0.355225 13.7181V3.86555C0.355225 3.49277 0.657443 3.19055 1.03022 3.19055H14.9843C15.3571 3.19055 15.6593 3.49277 15.6593 3.86555V13.7181C15.6593 14.0909 15.3571 14.3931 14.9843 14.3931Z" fill="#ADB8BC"/>
<path d="M14.8919 5.53128C14.8919 5.55247 14.8694 5.56966 14.8415 5.56966H12.6199C12.592 5.56966 12.5695 5.55247 12.5695 5.53128V4.32866C12.5695 4.30747 12.592 4.29028 12.6199 4.29028H14.8415C14.8694 4.29028 14.8919 4.30747 14.8919 4.32866V5.53128Z" fill="#FFFBDE"/>
<path d="M2.13937 5.73186C2.58221 5.73186 2.94121 5.37286 2.94121 4.93002C2.94121 4.48717 2.58221 4.12817 2.13937 4.12817C1.69652 4.12817 1.33752 4.48717 1.33752 4.93002C1.33752 5.37286 1.69652 5.73186 2.13937 5.73186Z" fill="#FF473E"/>
<path d="M14.8919 6.28119C14.8919 6.29716 14.8693 6.31013 14.8415 6.31013H12.6199C12.592 6.31013 12.5694 6.29716 12.5694 6.28119V5.37466C12.5694 5.35869 12.592 5.34572 12.6199 5.34572H14.8415C14.8693 5.34572 14.8919 5.35869 14.8919 5.37466V6.28119ZM8.00735 4.29028C5.62573 4.29028 3.69507 6.22097 3.69507 8.60256C3.69507 10.9842 5.62576 12.9148 8.00735 12.9148C10.3889 12.9148 12.3196 10.9842 12.3196 8.60256C12.3196 6.22097 10.389 4.29028 8.00735 4.29028Z" fill="#1C4C5A"/>
<path d="M8.00737 5.89368C9.50343 5.89368 10.7163 7.10677 10.7163 8.60258C10.7163 10.0986 9.50343 11.3115 8.00737 11.3115C6.51131 11.3115 5.29846 10.0986 5.29846 8.60258C5.29846 7.10677 6.51131 5.89368 8.00737 5.89368Z" fill="#1C4C5A"/>
<path d="M8.00737 5.89368C6.51131 5.89368 5.29846 7.10677 5.29846 8.60258C5.29846 10.0986 6.51131 11.3115 8.00737 11.3115C9.50343 11.3115 10.7163 10.0986 10.7163 8.60258C10.7163 7.10677 9.50368 5.89368 8.00737 5.89368Z" fill="#F4F3EF"/>
<path d="M8.00735 10.5666C9.1118 10.5666 10.0071 9.67125 10.0071 8.5668C10.0071 7.46235 9.1118 6.56702 8.00735 6.56702C6.9029 6.56702 6.00757 7.46235 6.00757 8.5668C6.00757 9.67125 6.9029 10.5666 8.00735 10.5666Z" fill="#00BEEA"/>
<path d="M8.74607 7.37134C9.01795 7.37134 9.2386 7.59199 9.2386 7.86387C9.2386 8.13599 9.01795 8.3564 8.74607 8.3564C8.4742 8.3564 8.25354 8.13599 8.25354 7.86387C8.25354 7.59174 8.4742 7.37134 8.74607 7.37134Z" fill="white"/>
</svg>
