<svg width="30" height="30" viewBox="0 0 30 30" fill="none" xmlns="http://www.w3.org/2000/svg">
<path d="M0 7.28034L14.2146 4.32364C14.7323 4.21601 15.2677 4.21601 15.7854 4.32364L30 7.28034V23.7122C30 25.1465 29.413 26.522 28.3682 27.5362C27.3233 28.5504 25.9062 29.1202 24.4286 29.1202H5.57143C4.09379 29.1202 2.67668 28.5504 1.63183 27.5362C0.586988 26.522 0 25.1465 0 23.7122V7.28034Z" fill="#B4ACBC"/>
<path d="M1.07146 6.23998L14.1568 3.30928C14.7117 3.18499 15.2884 3.18499 15.8432 3.30928L28.9286 6.23998V23.3999C28.9286 24.6411 28.4206 25.8314 27.5164 26.7091C26.6122 27.5868 25.3859 28.0798 24.1072 28.0798H5.89289C4.61416 28.0798 3.38781 27.5868 2.48362 26.7091C1.57943 25.8314 1.07146 24.6411 1.07146 23.3999V6.23998Z" fill="#F3EEF8"/>
<path d="M6.42855 10.4001C6.37172 10.4001 6.31721 10.4221 6.27703 10.4611C6.23684 10.5001 6.21426 10.553 6.21426 10.6081V13.3121C6.21426 13.4265 6.31069 13.5201 6.42855 13.5201H9.42855C9.48538 13.5201 9.53989 13.4982 9.58007 13.4592C9.62026 13.4202 9.64284 13.3673 9.64284 13.3121V10.6081C9.64284 10.553 9.62026 10.5001 9.58007 10.4611C9.53989 10.4221 9.48538 10.4001 9.42855 10.4001H6.42855ZM6.42855 16.1201C6.37172 16.1201 6.31721 16.142 6.27703 16.181C6.23684 16.22 6.21426 16.2729 6.21426 16.3281V19.0321C6.21426 19.1465 6.31069 19.2401 6.42855 19.2401H9.42855C9.48538 19.2401 9.53989 19.2182 9.58007 19.1792C9.62026 19.1402 9.64284 19.0873 9.64284 19.0321V16.3281C9.64284 16.2729 9.62026 16.22 9.58007 16.181C9.53989 16.142 9.48538 16.1201 9.42855 16.1201H6.42855ZM6.21426 21.9441C6.21426 21.8297 6.31069 21.7361 6.42855 21.7361H9.42855C9.54641 21.7361 9.64284 21.8297 9.64284 21.9441V24.648C9.64284 24.7032 9.62026 24.7561 9.58007 24.7951C9.53989 24.8341 9.48538 24.856 9.42855 24.856H6.42855C6.37172 24.856 6.31721 24.8341 6.27703 24.7951C6.23684 24.7561 6.21426 24.7032 6.21426 24.648V21.9441ZM13.5 10.4001C13.4431 10.4001 13.3886 10.4221 13.3485 10.4611C13.3083 10.5001 13.2857 10.553 13.2857 10.6081V13.3121C13.2857 13.4265 13.3821 13.5201 13.5 13.5201H16.5C16.5568 13.5201 16.6113 13.4982 16.6515 13.4592C16.6917 13.4202 16.7143 13.3673 16.7143 13.3121V10.6081C16.7143 10.553 16.6917 10.5001 16.6515 10.4611C16.6113 10.4221 16.5568 10.4001 16.5 10.4001H13.5ZM13.2857 16.3281C13.2857 16.2137 13.3821 16.1201 13.5 16.1201H16.5C16.6178 16.1201 16.7143 16.2137 16.7143 16.3281V19.0321C16.7143 19.0873 16.6917 19.1402 16.6515 19.1792C16.6113 19.2182 16.5568 19.2401 16.5 19.2401H13.5C13.4431 19.2401 13.3886 19.2182 13.3485 19.1792C13.3083 19.1402 13.2857 19.0873 13.2857 19.0321V16.3281ZM13.5 21.7361C13.4431 21.7361 13.3886 21.758 13.3485 21.797C13.3083 21.836 13.2857 21.8889 13.2857 21.9441V24.648C13.2857 24.7624 13.3821 24.856 13.5 24.856H16.5C16.5568 24.856 16.6113 24.8341 16.6515 24.7951C16.6917 24.7561 16.7143 24.7032 16.7143 24.648V21.9441C16.7143 21.8889 16.6917 21.836 16.6515 21.797C16.6113 21.758 16.5568 21.7361 16.5 21.7361H13.5ZM20.3571 10.6081C20.3571 10.4937 20.4535 10.4001 20.5714 10.4001H23.5714C23.6893 10.4001 23.7857 10.4937 23.7857 10.6081V13.3121C23.7857 13.3673 23.7631 13.4202 23.7229 13.4592C23.6827 13.4982 23.6282 13.5201 23.5714 13.5201H20.5714C20.5146 13.5201 20.4601 13.4982 20.4199 13.4592C20.3797 13.4202 20.3571 13.3673 20.3571 13.3121V10.6081ZM20.5714 21.7361C20.5146 21.7361 20.4601 21.758 20.4199 21.797C20.3797 21.836 20.3571 21.8889 20.3571 21.9441V24.648C20.3571 24.7624 20.4535 24.856 20.5714 24.856H23.5714C23.6282 24.856 23.6827 24.8341 23.7229 24.7951C23.7631 24.7561 23.7857 24.7032 23.7857 24.648V21.9441C23.7857 21.8889 23.7631 21.836 23.7229 21.797C23.6827 21.758 23.6282 21.7361 23.5714 21.7361H20.5714Z" fill="#998EA4"/>
<path d="M5.57143 0C4.09379 0 2.67668 0.569766 1.63183 1.58396C0.586988 2.59815 0 3.97368 0 5.40796V7.27995H30V5.40796C30 3.97368 29.413 2.59815 28.3682 1.58396C27.3233 0.569766 25.9062 0 24.4286 0H5.57143ZM20.5714 16.1199C20.5146 16.1199 20.4601 16.1418 20.4199 16.1808C20.3797 16.2198 20.3571 16.2727 20.3571 16.3279V19.0319C20.3571 19.1463 20.4536 19.2399 20.5714 19.2399H23.5714C23.6283 19.2399 23.6828 19.218 23.723 19.1789C23.7631 19.1399 23.7857 19.087 23.7857 19.0319V16.3279C23.7857 16.2727 23.7631 16.2198 23.723 16.1808C23.6828 16.1418 23.6283 16.1199 23.5714 16.1199H20.5714Z" fill="#0084CE"/>
</svg>
