<svg width="25" height="25" viewBox="0 0 25 25" fill="none" xmlns="http://www.w3.org/2000/svg">
<path fill-rule="evenodd" clip-rule="evenodd" d="M23.3594 5.75625L13.4953 13.925C13.215 14.1572 12.8624 14.2843 12.4984 14.2843C12.1344 14.2843 11.7819 14.1572 11.5016 13.925L1.64219 5.75625C1.58929 5.91549 1.56238 6.08221 1.5625 6.25V18.75C1.5625 19.1644 1.72712 19.5618 2.02015 19.8549C2.31317 20.1479 2.7106 20.3125 3.125 20.3125H21.875C22.2894 20.3125 22.6868 20.1479 22.9799 19.8549C23.2729 19.5618 23.4375 19.1644 23.4375 18.75V6.25C23.4381 6.08229 23.4117 5.91557 23.3594 5.75625ZM3.125 3.125H21.875C22.7038 3.125 23.4987 3.45424 24.0847 4.04029C24.6708 4.62634 25 5.4212 25 6.25V18.75C25 19.5788 24.6708 20.3737 24.0847 20.9597C23.4987 21.5458 22.7038 21.875 21.875 21.875H3.125C2.2962 21.875 1.50134 21.5458 0.915291 20.9597C0.32924 20.3737 0 19.5788 0 18.75V6.25C0 5.4212 0.32924 4.62634 0.915291 4.04029C1.50134 3.45424 2.2962 3.125 3.125 3.125ZM2.79688 4.6875L11.5094 11.8797C11.7884 12.1102 12.1388 12.2366 12.5007 12.2375C12.8626 12.2383 13.2136 12.1135 13.4937 11.8844L22.2937 4.6875H2.79688Z" fill="#B3B3B3"/>
</svg>
