<svg width="28" height="28" viewBox="0 0 28 28" fill="none" xmlns="http://www.w3.org/2000/svg">
<path d="M25.8125 4.375H2.1875C1.46263 4.375 0.875 4.96263 0.875 5.6875V22.3125C0.875 23.0374 1.46263 23.625 2.1875 23.625H25.8125C26.5374 23.625 27.125 23.0374 27.125 22.3125V5.6875C27.125 4.96263 26.5374 4.375 25.8125 4.375Z" fill="#B4ACBC"/>
<path d="M25.375 6.125H2.625C2.14175 6.125 1.75 6.51675 1.75 7V21C1.75 21.4832 2.14175 21.875 2.625 21.875H25.375C25.8582 21.875 26.25 21.4832 26.25 21V7C26.25 6.51675 25.8582 6.125 25.375 6.125Z" fill="#CDC4D6"/>
<path d="M26.25 20.4749L14.9004 13.6657C14.6284 13.5025 14.3172 13.4163 14 13.4163C13.6828 13.4163 13.3716 13.5025 13.0996 13.6657L1.75 20.4749V21.8749C1.75 22.107 1.84219 22.3295 2.00628 22.4936C2.17038 22.6577 2.39294 22.7499 2.625 22.7499H25.375C25.6071 22.7499 25.8296 22.6577 25.9937 22.4936C26.1578 22.3295 26.25 22.107 26.25 21.8749V20.4749Z" fill="#E1D8EC"/>
<path d="M1.75 8.54525V7H26.25V8.54525L15.351 15.085C14.9429 15.33 14.4759 15.4594 14 15.4594C13.5241 15.4594 13.0571 15.33 12.649 15.085L1.75 8.54525Z" fill="#998EA4"/>
<path d="M1.75 7.525V6.125C1.75 5.89294 1.84219 5.67038 2.00628 5.50628C2.17038 5.34219 2.39294 5.25 2.625 5.25H25.375C25.6071 5.25 25.8296 5.34219 25.9937 5.50628C26.1578 5.67038 26.25 5.89294 26.25 6.125V7.525L14.9004 14.3351C14.6284 14.4983 14.3172 14.5845 14 14.5845C13.6828 14.5845 13.3716 14.4983 13.0996 14.3351L1.75 7.525Z" fill="#F3EEF8"/>
<path d="M14 20.125C15.6245 20.125 17.1824 19.4797 18.331 18.331C19.4797 17.1824 20.125 15.6245 20.125 14C20.125 12.3755 19.4797 10.8176 18.331 9.66897C17.1824 8.52031 15.6245 7.875 14 7.875C12.3755 7.875 10.8176 8.52031 9.66897 9.66897C8.52031 10.8176 7.875 12.3755 7.875 14C7.875 15.6245 8.52031 17.1824 9.66897 18.331C10.8176 19.4797 12.3755 20.125 14 20.125Z" fill="#00A6ED"/>
<path d="M14 10.0626C12.9413 10.0451 11.935 10.4476 11.1825 11.2001C10.4213 11.9438 10.01 12.9413 10.01 14.0001C10.01 16.1701 11.7775 17.9376 13.9475 17.9376C14.0566 17.9376 14.1612 17.8942 14.2383 17.8171C14.3154 17.74 14.3588 17.6354 14.3588 17.5263C14.3588 17.4172 14.3154 17.3126 14.2383 17.2355C14.1612 17.1584 14.0566 17.1151 13.9475 17.1151C12.2325 17.1151 10.8325 15.7151 10.8325 14.0001C10.8325 13.1601 11.165 12.3726 11.76 11.7863C12.355 11.2001 13.1513 10.8851 13.9913 10.8851C15.68 10.9113 17.0625 12.3288 17.0625 14.0526V14.7613C17.0625 14.9168 17.0007 15.0659 16.8908 15.1759C16.7809 15.2858 16.6317 15.3476 16.4763 15.3476C16.3208 15.3476 16.1717 15.2858 16.0617 15.1759C15.9518 15.0659 15.89 14.9168 15.89 14.7613V12.0663C15.89 11.9572 15.8467 11.8526 15.7696 11.7755C15.6924 11.6984 15.5878 11.6551 15.4788 11.6551C15.2513 11.6551 15.05 11.8388 15.05 12.0663V12.1451C14.665 11.8388 14.1838 11.6463 13.65 11.6463C12.425 11.6463 11.4275 12.6438 11.4275 13.8688C11.4275 15.0938 12.425 16.0913 13.65 16.0913C14.2625 16.0913 14.8225 15.8376 15.225 15.4351C15.47 15.8726 15.9338 16.1701 16.4675 16.1701C17.2463 16.1701 17.885 15.5313 17.885 14.7526V14.0438C17.885 11.8826 16.1438 10.0888 14 10.0626ZM13.6588 15.2776C12.8888 15.2776 12.2588 14.6476 12.2588 13.8776C12.2588 13.1076 12.8888 12.4776 13.6588 12.4776C14.4288 12.4776 15.0588 13.1076 15.0588 13.8776C15.0588 14.6476 14.4288 15.2776 13.6588 15.2776Z" fill="#F4F4F4"/>
</svg>
