<svg width="22" height="22" viewBox="0 0 22 22" fill="none" xmlns="http://www.w3.org/2000/svg">
<path fill-rule="evenodd" clip-rule="evenodd" d="M5.85752 7.44787L8.0171 10.4638C8.01858 10.4658 8.02052 10.4675 8.02277 10.4687C8.02501 10.4698 8.0275 10.4704 8.03002 10.4704C8.03255 10.4704 8.03504 10.4698 8.03728 10.4687C8.03953 10.4675 8.04147 10.4658 8.04295 10.4638L13.1728 3.30005L16.2957 7.66155C17.1439 8.84607 17.6 10.2664 17.6 11.7233V12.1C17.6 15.7452 14.6451 18.7 11 18.7C7.3549 18.7 4.40002 15.7452 4.40002 12.1V11.7233C4.40005 10.2664 4.85615 8.84607 5.70435 7.66155L5.85752 7.44787Z" fill="#EB5757"/>
<path fill-rule="evenodd" clip-rule="evenodd" d="M6.49798 11.3051L8.01708 13.4264C8.01856 13.4285 8.0205 13.4301 8.02275 13.4313C8.02499 13.4324 8.02748 13.433 8.03 13.433C8.03253 13.433 8.03502 13.4324 8.03726 13.4313C8.03951 13.4301 8.04145 13.4285 8.04293 13.4264L12.65 6.9928L14.6878 9.6064C15.292 10.3811 15.6201 11.3354 15.62 12.3179C15.62 14.753 13.6458 16.727 11.2107 16.727H10.7894C8.35423 16.727 6.38 14.753 6.38 12.3176C6.38 11.9744 6.42043 11.6348 6.49798 11.3051Z" fill="#F2C94C"/>
</svg>
