<svg width="77" height="66" viewBox="0 0 77 66" fill="none" xmlns="http://www.w3.org/2000/svg">
<path fill-rule="evenodd" clip-rule="evenodd" d="M38.0625 2.85469C38.9486 1.95069 40.0062 1.23257 41.1733 0.742389C42.3404 0.252209 43.5935 -0.000180745 44.8594 9.71133e-08H66.6094C68.6294 9.71133e-08 70.3884 1.09838 71.3237 2.72691C71.514 3.05588 71.5847 3.43378 71.5847 3.81441V10.0512L73.4062 50.2969C73.4062 52.0995 72.6902 53.8283 71.4155 55.103C70.1408 56.3777 68.412 57.0938 66.6094 57.0938H9.51562C7.71298 57.0938 5.98417 56.3777 4.70951 55.103C3.43485 53.8283 2.71875 52.0995 2.71875 50.2969L4.54031 10.0512V3.81441C4.54031 3.43378 4.611 3.05588 4.80131 2.72691C5.27797 1.89801 5.96477 1.20945 6.79246 0.730692C7.62015 0.251932 8.55945 -0.000105367 9.51562 9.71133e-08H31.2656C33.93 9.71133e-08 36.3361 1.09294 38.0625 2.85469Z" fill="#B4ACBC"/>
<path d="M42.7714 62.5313H72.0469C74.3034 62.5313 76.1277 60.688 76.1277 58.4396V55.5713C76.1277 53.3229 74.3062 48.9348 72.0469 48.9348H4.07813C1.82428 48.9375 0 53.3256 0 55.574V58.4667C0 60.7152 1.82156 62.5313 4.08084 62.5313H33.3536C33.8309 63.3578 34.5173 64.0442 35.3439 64.5214C36.1704 64.9986 37.1081 65.2498 38.0625 65.2498C39.0169 65.2498 39.9546 64.9986 40.7811 64.5214C41.6077 64.0442 42.2941 63.3578 42.7714 62.5313Z" fill="#0074BA"/>
<path fill-rule="evenodd" clip-rule="evenodd" d="M4.08084 8.15625H32.625V10.875H43.5V8.15625H72.0442C74.3007 8.15625 76.125 9.97237 76.125 12.2208V55.7208C76.125 57.9692 74.3034 59.8125 72.0442 59.8125H42.7714C42.2941 60.639 41.6077 61.3254 40.7811 61.8026C39.9546 62.2798 39.0169 62.531 38.0625 62.531C37.1081 62.531 36.1704 62.2798 35.3439 61.8026C34.5173 61.3254 33.8309 60.639 33.3536 59.8125H4.07812C1.82428 59.8125 0 57.9964 0 55.748V12.2208C0 9.97237 1.82156 8.15625 4.08084 8.15625ZM42.1406 55.7344C42.1406 56.816 41.711 57.8532 40.9462 58.618C40.1814 59.3828 39.1441 59.8125 38.0625 59.8125C36.9809 59.8125 35.9436 59.3828 35.1788 58.618C34.414 57.8532 33.9844 56.816 33.9844 55.7344C33.9844 54.6528 34.414 53.6155 35.1788 52.8507C35.9436 52.0859 36.9809 51.6562 38.0625 51.6562C39.1441 51.6562 40.1814 52.0859 40.9462 52.8507C41.711 53.6155 42.1406 54.6528 42.1406 55.7344Z" fill="#00A6ED"/>
<path d="M29.9062 2.71875H10.3394C9.66806 2.7188 9.0071 2.88459 8.4152 3.20141C7.82331 3.51822 7.31878 3.97626 6.94641 4.53488L2.71875 10.875V50.2969C2.71875 51.3785 3.14841 52.4157 3.91321 53.1805C4.678 53.9453 5.71529 54.375 6.79688 54.375H69.3281C70.4097 54.375 71.447 53.9453 72.2118 53.1805C72.9766 52.4157 73.4062 51.3785 73.4062 50.2969V10.875L69.1786 4.53488C68.8062 3.97626 68.3017 3.51822 67.7098 3.20141C67.1179 2.88459 66.4569 2.7188 65.7856 2.71875H46.2188V10.875H29.9062V2.71875Z" fill="#B4ACBC"/>
<path d="M9.51562 2.71875H31.2656C33.0683 2.71875 34.7971 3.43485 36.0717 4.70951C37.3464 5.98417 38.0625 7.71298 38.0625 9.51562V54.375L36.8472 51.9444C36.3955 51.0406 35.7009 50.2804 34.8413 49.7493C33.9817 49.2181 32.9911 48.937 31.9807 48.9375H9.51562C8.79457 48.9375 8.10304 48.6511 7.59318 48.1412C7.08331 47.6313 6.79688 46.9398 6.79688 46.2188V5.4375C6.79688 4.71644 7.08331 4.02492 7.59318 3.51505C8.10304 3.00519 8.79457 2.71875 9.51562 2.71875ZM44.8594 2.71875H66.6094C67.3304 2.71875 68.022 3.00519 68.5318 3.51505C69.0417 4.02492 69.3281 4.71644 69.3281 5.4375V46.2188C69.3281 46.9398 69.0417 47.6313 68.5318 48.1412C68.022 48.6511 67.3304 48.9375 66.6094 48.9375H44.1416C43.1835 48.9375 42.2423 49.1908 41.4135 49.6715C40.5847 50.1523 39.8976 50.8436 39.4219 51.6753V5.4375C40.6616 3.78722 42.6354 2.71875 44.8594 2.71875Z" fill="#F3EEF8"/>
</svg>
