<svg width="30" height="30" viewBox="0 0 30 30" fill="none" xmlns="http://www.w3.org/2000/svg">
<path fill-rule="evenodd" clip-rule="evenodd" d="M23.7948 25.4058L19.0218 20.6313C18.9174 20.5269 18.8346 20.403 18.7781 20.2666C18.7216 20.1302 18.6925 19.984 18.6925 19.8363C18.6925 19.6887 18.7216 19.5425 18.7781 19.4061C18.8346 19.2697 18.9174 19.1457 19.0218 19.0413C19.1262 18.9369 19.2501 18.8541 19.3866 18.7976C19.523 18.7411 19.6692 18.712 19.8168 18.712C19.9645 18.712 20.1106 18.7411 20.2471 18.7976C20.3835 18.8541 20.5074 18.9369 20.6118 19.0413L25.3856 23.8158C25.5964 24.0268 25.7148 24.3128 25.7147 24.6111C25.7147 24.9094 25.5961 25.1954 25.3852 25.4062C25.1742 25.6171 24.8882 25.7355 24.5899 25.7354C24.2917 25.7353 24.0057 25.6168 23.7948 25.4058Z" fill="#F2C94C"/>
<path d="M18.4912 21.1616L23.265 25.9361L24.3259 24.8756L19.5521 20.1011L18.4912 21.1616ZM18.4912 18.5111C18.1399 18.8627 17.9426 19.3394 17.9426 19.8364C17.9426 20.3334 18.1399 20.81 18.4912 21.1616L19.5521 20.1011C19.482 20.0308 19.4431 19.9356 19.4431 19.8364C19.4431 19.7371 19.482 19.6419 19.5521 19.5716L18.4912 18.5111ZM21.1425 18.5111C20.7909 18.1596 20.314 17.9622 19.8169 17.9622C19.3197 17.9622 18.8428 18.1596 18.4912 18.5111L19.5521 19.5716C19.6224 19.5017 19.7179 19.4624 19.817 19.4624C19.9162 19.4624 20.0113 19.5017 20.0816 19.5716L21.1425 18.5111ZM25.9159 23.2856L21.1425 18.5111L20.0816 19.5716L24.855 24.3461L25.9159 23.2856ZM25.9162 25.9361C26.2675 25.5845 26.4648 25.1079 26.4648 24.6109C26.4648 24.1139 26.2671 23.6372 25.9159 23.2856L24.855 24.3461C24.925 24.4164 24.9644 24.5116 24.9644 24.6109C24.9644 24.7101 24.925 24.8053 24.855 24.8756L25.9162 25.9361ZM23.265 25.9361C23.6166 26.2876 24.0934 26.4851 24.5906 26.4851C25.0878 26.4851 25.5646 26.2876 25.9162 25.9361L24.855 24.8756C24.7847 24.9456 24.6896 24.9849 24.5904 24.9849C24.4913 24.9849 24.3961 24.9456 24.3259 24.8756L23.265 25.9361Z" fill="#F2C94C"/>
<path d="M5.84885 10.9008C6.0881 9.9906 6.50483 9.1366 7.07509 8.38789C7.64536 7.63918 8.35793 7.01052 9.17187 6.538C9.98582 6.06549 10.8851 5.75844 11.818 5.6345C12.751 5.51055 13.6993 5.57215 14.6083 5.81575C15.5174 6.05935 16.3694 6.48016 17.1154 7.054C17.8614 7.62784 18.4866 8.34341 18.9552 9.1596C19.4238 9.9758 19.7266 10.8765 19.8461 11.8101C19.9656 12.7436 19.8994 13.6916 19.6515 14.5995C19.161 16.4299 17.9635 17.9904 16.3224 18.9379C14.6813 19.8854 12.7311 20.1421 10.9007 19.6516C9.07027 19.1612 7.50968 17.9637 6.56221 16.3226C5.61475 14.6815 5.358 12.7312 5.84847 10.9008" fill="#2F80ED"/>
<path d="M7.7782 12.7488C7.7782 12.9477 7.85722 13.1385 7.99787 13.2792C8.13852 13.4198 8.32929 13.4988 8.5282 13.4988C8.72711 13.4988 8.91788 13.4198 9.05853 13.2792C9.19918 13.1385 9.2782 12.9477 9.2782 12.7488H7.7782ZM12.7488 9.2782C12.9477 9.2782 13.1385 9.19918 13.2792 9.05853C13.4198 8.91788 13.4988 8.72711 13.4988 8.5282C13.4988 8.32929 13.4198 8.13852 13.2792 7.99787C13.1385 7.85722 12.9477 7.7782 12.7488 7.7782V9.2782ZM9.2782 12.7488C9.27835 12.1396 9.43879 11.5414 9.74342 11.0138C10.048 10.4862 10.4861 10.048 11.0137 9.7432L10.2637 8.4442C9.50812 8.88061 8.88067 9.50816 8.44439 10.2638C8.00811 11.0195 7.77835 11.8763 7.7782 12.7488H9.2782ZM12.7484 7.7782C11.8761 7.77823 11.0191 8.00793 10.2637 8.4442L11.0137 9.7432C11.5412 9.43853 12.1397 9.27815 12.7488 9.2782L12.7484 7.7782Z" fill="#F2F2F2"/>
</svg>
