<svg width="31" height="31" viewBox="0 0 31 31" fill="none" xmlns="http://www.w3.org/2000/svg">
<path fill-rule="evenodd" clip-rule="evenodd" d="M7.68526 14.8219C7.29311 14.8219 6.97498 15.1396 6.97498 15.5322V25.7366C6.97498 26.1287 7.29273 26.4469 7.68526 26.4469H23.3147C23.7068 26.4469 24.025 26.1291 24.025 25.7366V15.5322C24.025 15.14 23.7072 14.8219 23.3147 14.8219H7.68526ZM16.6625 21.7969C16.5105 21.9528 16.3292 22.077 16.1288 22.1623C15.9285 22.2476 15.7133 22.2922 15.4955 22.2936C15.2778 22.295 15.062 22.2532 14.8606 22.1705C14.6592 22.0879 14.4762 21.966 14.3222 21.8121C14.1683 21.6581 14.0465 21.4752 13.9638 21.2737C13.8811 21.0723 13.8393 20.8565 13.8407 20.6388C13.8421 20.4211 13.8868 20.2058 13.9721 20.0055C14.0573 19.8052 14.1815 19.6238 14.3375 19.4719C14.6471 19.1702 15.0632 19.0026 15.4955 19.0054C15.9279 19.0082 16.3417 19.1812 16.6474 19.4869C16.9532 19.7926 17.1262 20.2065 17.129 20.6388C17.1318 21.0711 16.9642 21.4872 16.6625 21.7969Z" fill="#F2C94C"/>
<path fill-rule="evenodd" clip-rule="evenodd" d="M15.5 5.52188C12.183 5.52188 9.49371 8.21113 9.49371 11.5281V14.8219H11.0437V11.5281C11.0437 9.06712 13.039 7.07188 15.5 7.07188C17.961 7.07188 19.9562 9.06712 19.9562 11.5281V14.8219H21.5062V11.5281C21.5062 8.21113 18.817 5.52188 15.5 5.52188Z" fill="#828282"/>
</svg>
