<svg width="18" height="9" viewBox="0 0 18 9" fill="none" xmlns="http://www.w3.org/2000/svg">
<path d="M0.669 5.75L1.339 6.086L1.342 6.081L1.359 6.049L1.436 5.911C1.506 5.789 1.616 5.609 1.764 5.391C2.062 4.956 2.514 4.374 3.124 3.793C4.341 2.633 6.165 1.5 8.669 1.5C11.171 1.5 12.995 2.632 14.214 3.793C14.824 4.374 15.275 4.956 15.573 5.392C15.7252 5.61441 15.866 5.84437 15.995 6.081L15.998 6.086L16.669 5.75L17.34 5.414L17.339 5.411L17.336 5.406L17.328 5.391L17.301 5.339L17.201 5.159C17.0788 4.95003 16.949 4.74556 16.812 4.546C16.469 4.044 15.952 3.376 15.249 2.706C13.842 1.369 11.666 0 8.669 0C5.672 0 3.496 1.368 2.089 2.707C1.50582 3.26404 0.982325 3.88037 0.527 4.546C0.341153 4.81897 0.168942 5.10099 0.0109999 5.391L0.00300002 5.406L0 5.411V5.414L0.669 5.75ZM8.669 8.75C9.59726 8.75 10.4875 8.38125 11.1439 7.72487C11.8003 7.0685 12.169 6.17826 12.169 5.25C12.169 4.32174 11.8003 3.4315 11.1439 2.77513C10.4875 2.11875 9.59726 1.75 8.669 1.75C7.74074 1.75 6.8505 2.11875 6.19413 2.77513C5.53775 3.4315 5.169 4.32174 5.169 5.25C5.169 6.17826 5.53775 7.0685 6.19413 7.72487C6.8505 8.38125 7.74074 8.75 8.669 8.75Z" fill="#FFCD29"/>
</svg>
