<svg width="24" height="24" viewBox="0 0 24 24" fill="none" xmlns="http://www.w3.org/2000/svg">
<path d="M20.7 12.7C20.7 12.7 20.7 12.6 20.6 12.5C20.6 12.3 20.4 12.1 20.2 11.9C19.9 11.4 19.3 10.7 18.6 10.1C17.9 9.49999 17.1 8.79999 16 8.29999L15.4 9.69999C16.3 10.1 17 10.7 17.5 11.2C18.1 11.8 18.6 12.4 18.9 12.8C19 13 19.2 13.2 19.2 13.3V13.4L19.9 13.1L20.6 12.8L20.7 12.7ZM15.5 3.39999L13.7 7.39999C13.2 7.29999 12.6 7.19999 12 7.19999C8.99999 7.19999 6.79999 8.59999 5.39999 9.89999C4.69999 10.6 4.19999 11.2 3.79999 11.7C3.59999 12 3.49999 12.2 3.39999 12.3C3.39999 12.3 3.39999 12.4 3.29999 12.5C3.19999 12.6 3.29999 12.5 3.99999 12.8L4.69999 13.1V13C4.69999 12.9 4.89999 12.7 4.99999 12.5C5.29999 12.1 5.69999 11.5 6.39999 10.9C7.59999 9.69999 9.39999 8.59999 11.9 8.59999H13V8.89999C12.6 8.89999 12.2 8.79999 11.9 8.79999C9.99999 8.79999 8.39999 10.4 8.39999 12.3C8.39999 14.2 8.99999 14.6 9.99999 15.2L7.99999 19.6L8.89999 20L16.5 3.79999L15.6 3.39999H15.5ZM12.5 16C14.2 15.8 15.5 14.3 15.5 12.5C15.5 10.7 15.3 11.1 14.9 10.6L12.4 16H12.5Z" fill="#FFCD29"/>
</svg>
