<svg width="24" height="24" viewBox="0 0 24 24" fill="none" xmlns="http://www.w3.org/2000/svg">
<path d="M12 3.5C17.3346 3.5 21.5 6.95519 21.5 11C21.5 15.0448 17.3346 18.5 12 18.5C10.8083 18.5 9.66499 18.3266 8.60938 18.0195L8.35059 17.9443L8.14453 18.1201C6.76018 19.3053 5.22037 19.9023 4.01855 20.2021C3.74999 20.2691 3.49884 20.3191 3.27148 20.3594C4.86255 18.4949 5.19482 17.1794 5.24805 16.542L5.26953 16.2842L5.07227 16.1172C3.46387 14.7642 2.5 12.9566 2.5 11C2.5 6.95519 6.66538 3.5 12 3.5Z" fill="white" stroke="black"/>
</svg>
