<svg width="24" height="24" viewBox="0 0 24 24" fill="none" xmlns="http://www.w3.org/2000/svg">
<g clip-path="url(#clip0_63_380)">
<path fill-rule="evenodd" clip-rule="evenodd" d="M22.471 11.0981C22.231 10.7181 21.751 10.7081 21.301 10.7681C19.439 11.0666 17.7019 11.8934 16.296 13.1501C15.3549 13.7977 14.5938 14.6738 14.0843 15.6962C13.5747 16.7187 13.3334 17.8538 13.383 18.9951C13.3676 19.7443 13.5002 20.4892 13.773 21.1871C13.1221 21.9801 12.5302 22.8196 12.002 23.6991C12.002 23.9291 12.292 24.1191 12.622 23.9091C13.7943 22.6912 14.897 21.4081 15.925 20.0661C16.81 18.7539 17.6219 17.3938 18.357 15.9921C18.379 15.9431 18.3875 15.8892 18.3815 15.8358C18.3755 15.7824 18.3554 15.7316 18.3231 15.6887C18.2908 15.6458 18.2476 15.6124 18.198 15.5919C18.1484 15.5713 18.0941 15.5645 18.041 15.5721C17.9696 15.5823 17.9043 15.6178 17.857 15.6721C13.983 20.7861 14.534 20.0761 14.104 20.6761C14.0936 20.5096 14.0936 20.3426 14.104 20.1761C13.9277 19.229 13.9821 18.2534 14.2625 17.3318C14.5429 16.4101 15.0411 15.5695 15.715 14.8811C17.717 12.8791 20.629 11.7881 21.45 11.8781C21.45 15.0311 21.45 14.7311 21.38 15.2311L19.839 16.2321C19.659 16.3321 19.209 16.4521 19.079 16.8321C18.858 17.4931 19.669 17.5541 20.199 18.0841C18.928 18.8241 18.768 18.5841 18.377 18.8641C18.3097 18.9007 18.2503 18.9503 18.2023 19.0099C18.1543 19.0696 18.1186 19.1381 18.0972 19.2117C18.0758 19.2852 18.0692 19.3623 18.0777 19.4384C18.0863 19.5145 18.1098 19.5881 18.147 19.6551C18.4643 19.9611 18.798 20.2481 19.148 20.5161C16.466 22.7681 15.715 21.9881 15.265 22.2881C15.2049 22.329 15.159 22.3876 15.1337 22.4557C15.1083 22.5238 15.1047 22.5981 15.1234 22.6683C15.142 22.7385 15.182 22.8013 15.2378 22.8478C15.2936 22.8943 15.3625 22.9224 15.435 22.9281C17.437 23.2481 20.039 20.9271 20.129 20.6961C20.289 20.2761 19.799 19.9461 19.339 19.5261C20.0031 19.2675 20.6512 18.9696 21.28 18.6341C21.3614 18.594 21.4317 18.5344 21.4845 18.4606C21.5374 18.3868 21.5713 18.3012 21.5832 18.2112C21.595 18.1212 21.5845 18.0297 21.5526 17.9447C21.5206 17.8597 21.4682 17.784 21.4 17.7241L20.58 16.9931C21.71 16.3731 22.281 16.0731 22.481 15.5221C22.601 15.2221 22.791 11.5881 22.471 11.0981Z" fill="#020202"/>
<path fill-rule="evenodd" clip-rule="evenodd" d="M11.061 18.9951C3.594 19.1051 6.767 19.1151 3.504 18.7251C3.014 18.6751 2.794 18.3051 2.654 17.8741C2.394 17.0231 2.464 16.8731 2.584 8.53505C2.44082 6.86491 2.51139 5.18332 2.794 3.53105C3.044 2.53005 2.794 2.15005 4.214 2.17005C4.214 2.51005 4.084 3.80105 4.114 4.02105C4.204 4.78205 4.956 4.67105 5.246 4.75105C6.767 5.11205 7.338 3.97105 7.248 2.38005C7.724 2.52305 8.232 2.52305 8.708 2.38005C8.708 2.49005 8.608 3.76105 8.638 3.94105C8.728 4.70105 9.47 4.58105 9.77 4.66105C11.271 5.02205 11.842 3.92105 11.772 2.36005C12.452 2.56005 12.502 2.53005 13.503 2.30005C13.503 2.40005 13.423 3.68105 13.443 3.80105C13.4513 3.94775 13.5062 4.08796 13.5997 4.20127C13.6933 4.31459 13.8205 4.39509 13.963 4.43105C15.565 4.86205 16.506 4.43105 16.556 2.70105C16.892 2.70905 17.2253 2.73905 17.556 2.79105C17.797 2.79105 17.997 2.87105 18.017 3.07105L18.387 10.0071C18.3754 10.0723 18.3857 10.1396 18.4163 10.1984C18.4468 10.2572 18.496 10.3043 18.5561 10.3324C18.6161 10.3604 18.6838 10.3678 18.7485 10.3535C18.8132 10.3392 18.8714 10.3038 18.914 10.2531C18.942 10.2192 18.9623 10.1797 18.9733 10.1372C18.9844 10.0947 18.986 10.0502 18.978 10.0071C19.418 7.65505 19.418 5.24205 18.978 2.89005C18.738 1.89005 17.657 1.89005 16.596 1.98005C16.5006 1.41798 16.3185 0.874151 16.056 0.368053C15.9136 0.239427 15.7467 0.140792 15.5653 0.0780244C15.3839 0.0152572 15.1918 -0.0103576 15.0003 0.00270636C14.8088 0.0157703 14.6219 0.0672457 14.4508 0.154065C14.2796 0.240885 14.1277 0.361272 14.004 0.508053C13.8093 0.813788 13.6736 1.15332 13.604 1.50905C12.9373 1.34992 12.2376 1.40235 11.602 1.65905C11.5696 1.25563 11.4611 0.862004 11.282 0.499053C11.1373 0.364191 10.9663 0.260595 10.7798 0.194725C10.5933 0.128854 10.3952 0.102122 10.1978 0.116196C10.0005 0.13027 9.80822 0.184848 9.63293 0.276526C9.45764 0.368204 9.30311 0.495016 9.179 0.649053C9.0163 0.911169 8.89804 1.19837 8.829 1.49905C8.25452 1.38556 7.66018 1.42698 7.107 1.61905C7.06388 1.24639 6.95556 0.884204 6.787 0.549053C6.64529 0.379375 6.45767 0.254139 6.24662 0.18834C6.03557 0.122542 5.81003 0.11897 5.597 0.178053C4.795 0.298053 4.495 0.848053 4.315 1.62905C3.78143 1.52792 3.2293 1.61635 2.754 1.87905C2.244 2.21905 2.214 2.94005 2.073 3.40105C1.68387 5.09366 1.51248 6.82903 1.563 8.56505C1.373 13.2601 1.423 11.7581 1.353 15.2611C1.353 17.1631 1.353 19.5951 3.414 19.7451C6.757 19.9951 3.534 20.1151 11.071 19.6951C11.117 19.6944 11.1623 19.6847 11.2046 19.6665C11.2468 19.6483 11.285 19.622 11.317 19.589C11.3491 19.556 11.3743 19.5171 11.3913 19.4744C11.4083 19.4317 11.4167 19.386 11.416 19.3401C11.4153 19.2941 11.4056 19.2487 11.3874 19.2065C11.3692 19.1643 11.3429 19.1261 11.3099 19.094C11.277 19.062 11.238 19.0368 11.1953 19.0198C11.1526 19.0028 11.107 18.9944 11.061 18.9951ZM14.444 1.73905C14.524 0.248052 15.445 0.619053 15.505 0.909052C15.622 1.64605 15.605 2.39905 15.455 3.13005C15.295 3.68105 15.015 3.55005 14.455 3.54005C14.4817 2.94005 14.4783 2.34005 14.445 1.74005M9.84 1.03005C10.04 0.630053 10.62 0.900052 10.7 0.870053C10.8566 1.66306 10.8566 2.47904 10.7 3.27205C10.61 3.57205 10.43 3.78205 10.05 3.67205H9.69C9.69 3.55205 9.75 3.42205 9.75 3.37205C9.61447 2.59378 9.64514 1.79563 9.84 1.03005ZM5.346 1.08005C5.546 0.680053 6.126 0.950052 6.206 0.920053C6.357 1.71005 6.357 2.52105 6.206 3.31205C6.116 3.61205 5.936 3.83205 5.556 3.71205H5.196C5.196 3.59205 5.256 3.46205 5.256 3.41205C5.12189 2.63702 5.15256 1.84244 5.346 1.08005Z" fill="#020202"/>
<path fill-rule="evenodd" clip-rule="evenodd" d="M15.135 8.24504C15.1749 8.21386 15.2081 8.17503 15.2328 8.13083C15.2574 8.08664 15.273 8.03796 15.2786 7.98766C15.2842 7.93736 15.2797 7.88644 15.2653 7.83791C15.251 7.78938 15.227 7.7442 15.195 7.70504C15.005 7.39504 9.51899 6.98404 6.85699 7.09404C3.85399 7.29404 4.28499 7.79404 4.76499 7.90404C5.80599 8.22504 15.115 8.26504 15.135 8.24504ZM12.002 11.348C11.692 11.268 9.25899 11.138 8.79899 11.138C8.33899 11.138 4.95599 11.238 4.79499 11.618C4.78594 11.66 4.78665 11.7034 4.79705 11.745C4.80745 11.7866 4.82728 11.8253 4.85499 11.858C5.46199 12.078 6.10199 12.193 6.74699 12.198C8.49899 12.321 10.258 12.278 12.002 12.068C12.412 12.068 12.542 11.478 12.002 11.348ZM5.07599 15.992C6.58314 16.3261 8.14211 16.3533 9.65999 16.072C9.7235 16.0083 9.75916 15.922 9.75916 15.832C9.75916 15.7421 9.7235 15.6558 9.65999 15.592C8.72352 15.2868 7.74157 15.1448 6.75699 15.172C4.46499 15.312 3.99499 15.812 5.07599 15.992Z" fill="#0C6FFF"/>
</g>
<defs>
<clipPath id="clip0_63_380">
<rect width="24" height="24" fill="white"/>
</clipPath>
</defs>
</svg>
