<svg width="18" height="18" viewBox="0 0 18 18" fill="none" xmlns="http://www.w3.org/2000/svg">
<path d="M9.35719 4.26648L11.8941 5.69242L13.3346 8.24448L5.27063 16.3085L2.53575 14.8629L1.29263 12.3316L9.35719 4.26648Z" fill="#FF822D"/>
<path d="M0.781876 15.7865L1.10925 16.5245L1.81519 16.8198L5.26331 16.2995L1.30219 12.3384L0.781876 15.7865Z" fill="#FFCE7C"/>
<path d="M0.597939 17.0037L0.781314 15.7865L1.81519 16.8198L0.597939 17.0037Z" fill="#402A32"/>
<path d="M12.5303 1.09346C12.6347 0.988946 12.7588 0.906038 12.8953 0.849473C13.0318 0.792908 13.1781 0.763794 13.3259 0.763794C13.4737 0.763794 13.62 0.792908 13.7565 0.849473C13.8931 0.906038 14.0171 0.988946 14.1216 1.09346L16.5077 3.48015C16.7186 3.69112 16.8371 3.97721 16.8371 4.27552C16.8371 4.57383 16.7186 4.85993 16.5077 5.0709L14.5193 7.0599L11.9728 5.7864L10.5413 3.08246L12.5303 1.09346Z" fill="#F92F60"/>
<path d="M10.5413 3.08252L14.5193 7.05996L13.3256 8.25302L9.34875 4.27614L10.5413 3.08252Z" fill="#D3D3D3"/>
</svg>
