<svg width="28" height="28" viewBox="0 0 28 28" fill="none" xmlns="http://www.w3.org/2000/svg">
<path d="M14.0046 21.5833C14.4688 21.5833 14.9139 21.7677 15.2421 22.0959C15.5703 22.424 15.7546 22.8692 15.7546 23.3333C15.7546 23.7974 15.5703 24.2425 15.2421 24.5707C14.9139 24.8989 14.4688 25.0833 14.0046 25.0833H14C13.5358 25.0833 13.0907 24.8989 12.7625 24.5707C12.4343 24.2425 12.25 23.7974 12.25 23.3333C12.25 22.8692 12.4343 22.424 12.7625 22.0959C13.0907 21.7677 13.5358 21.5833 14 21.5833H14.0046ZM14 2.91663C16.0112 2.91663 17.94 3.71558 19.3622 5.13773C20.7843 6.55988 21.5833 8.48873 21.5833 10.5C21.5833 12.712 20.2136 14.7058 18.2233 15.841C17.4801 16.2656 16.8233 16.7533 16.3695 17.276C15.9261 17.7858 15.75 18.242 15.75 18.6666C15.75 19.1308 15.5656 19.5759 15.2374 19.9041C14.9092 20.2323 14.4641 20.4166 14 20.4166C13.5358 20.4166 13.0907 20.2323 12.7625 19.9041C12.4343 19.5759 12.25 19.1308 12.25 18.6666C12.25 17.1581 12.9115 15.9203 13.727 14.98C14.532 14.0525 15.554 13.335 16.4896 12.8018C17.6085 12.1625 18.0833 11.221 18.0833 10.5C18.0833 9.96373 17.9777 9.43275 17.7725 8.93734C17.5673 8.44192 17.2665 7.99178 16.8873 7.61261C16.5081 7.23343 16.058 6.93266 15.5626 6.72745C15.0672 6.52224 14.5362 6.41663 14 6.41663C13.4637 6.41663 12.9327 6.52224 12.4373 6.72745C11.9419 6.93266 11.4918 7.23343 11.1126 7.61261C10.7334 7.99178 10.4327 8.44192 10.2275 8.93734C10.0222 9.43275 9.91663 9.96373 9.91663 10.5C9.91663 10.7298 9.87136 10.9573 9.78342 11.1697C9.69547 11.382 9.56657 11.5749 9.40406 11.7374C9.24156 11.8999 9.04864 12.0288 8.83632 12.1167C8.624 12.2047 8.39644 12.25 8.16663 12.25C7.93681 12.25 7.70925 12.2047 7.49693 12.1167C7.28461 12.0288 7.09169 11.8999 6.92919 11.7374C6.76669 11.5749 6.63778 11.382 6.54984 11.1697C6.46189 10.9573 6.41663 10.7298 6.41663 10.5C6.41663 8.48873 7.21558 6.55988 8.63773 5.13773C10.0599 3.71558 11.9887 2.91663 14 2.91663Z" fill="#F24822"/>
</svg>
