<svg width="20" height="20" viewBox="0 0 20 20" fill="none" xmlns="http://www.w3.org/2000/svg">
<path d="M5.00625 19.3233C4.90091 19.2704 4.81832 19.1811 4.77379 19.0719C4.72926 18.9627 4.72581 18.8411 4.76406 18.7296L5.39219 16.8905L6.62187 17.7202L5.62812 19.164C5.56112 19.2611 5.46128 19.3307 5.347 19.36C5.23271 19.3893 5.1117 19.3762 5.00625 19.3233ZM14.9 19.3233C15.1172 19.214 15.2219 18.9608 15.1422 18.7296L14.5062 16.8687L13.2109 17.614L14.2781 19.164C14.3451 19.2611 14.445 19.3307 14.5593 19.36C14.6735 19.3893 14.7946 19.3762 14.9 19.3233Z" fill="#82AEC0"/>
<path d="M5.39219 16.8906L5.07188 17.8281C5.27031 17.7141 5.52969 17.725 5.73594 17.8266C5.94219 17.9281 6.1 18.1063 6.22031 18.3031L6.58438 17.775C6.58438 17.7531 5.39219 16.8906 5.39219 16.8906ZM14.5109 16.8672L14.8578 17.8984C14.6594 17.7844 14.4219 17.7875 14.2141 17.8891C14.0078 17.9906 13.85 18.1688 13.7297 18.3656L13.2531 17.6734L14.5109 16.8672Z" fill="#2F7889"/>
<path d="M9.95312 18.1157C13.5784 18.1157 16.5172 15.1768 16.5172 11.5516C16.5172 7.92638 13.5784 4.98755 9.95312 4.98755C6.32789 4.98755 3.38906 7.92638 3.38906 11.5516C3.38906 15.1768 6.32789 18.1157 9.95312 18.1157Z" fill="#FFEFA1"/>
<path d="M9.95312 18.6843C14.2126 18.6843 17.6656 15.2313 17.6656 10.9718C17.6656 6.71228 14.2126 3.25928 9.95312 3.25928C5.69363 3.25928 2.24062 6.71228 2.24062 10.9718C2.24062 15.2313 5.69363 18.6843 9.95312 18.6843Z" fill="#CC2929"/>
<path d="M9.95312 18.6094C13.9572 18.6094 17.2031 15.3634 17.2031 11.3594C17.2031 7.35531 13.9572 4.10938 9.95312 4.10938C5.94906 4.10938 2.70312 7.35531 2.70312 11.3594C2.70312 15.3634 5.94906 18.6094 9.95312 18.6094Z" fill="#FF4638"/>
<path d="M9.95313 17.6141C13.4075 17.6141 16.2078 14.8138 16.2078 11.3594C16.2078 7.90506 13.4075 5.10474 9.95313 5.10474C6.49876 5.10474 3.69844 7.90506 3.69844 11.3594C3.69844 14.8138 6.49876 17.6141 9.95313 17.6141Z" fill="#FAFAFA"/>
<path d="M10 12.0547C10.384 12.0547 10.6953 11.7434 10.6953 11.3594C10.6953 10.9754 10.384 10.6641 10 10.6641C9.61599 10.6641 9.30469 10.9754 9.30469 11.3594C9.30469 11.7434 9.61599 12.0547 10 12.0547Z" fill="#563428"/>
<path d="M9.95312 6.65151C9.82656 6.65151 9.72344 6.54839 9.72344 6.42183V5.73433C9.72344 5.60776 9.82656 5.50464 9.95312 5.50464C10.0797 5.50464 10.1828 5.60776 10.1828 5.73433V6.42183C10.1828 6.54839 10.0797 6.65151 9.95312 6.65151ZM9.95312 17.2125C9.82656 17.2125 9.72344 17.1093 9.72344 16.9828V16.2953C9.72344 16.1687 9.82656 16.0656 9.95312 16.0656C10.0797 16.0656 10.1828 16.1687 10.1828 16.2953V16.9828C10.1828 17.1093 10.0797 17.2125 9.95312 17.2125ZM15.5766 11.5875H14.8891C14.7625 11.5875 14.6594 11.4843 14.6594 11.3578C14.6594 11.2312 14.7625 11.1281 14.8891 11.1281H15.5766C15.7031 11.1281 15.8062 11.2312 15.8062 11.3578C15.8062 11.4859 15.7031 11.5875 15.5766 11.5875ZM5.01719 11.5875H4.32969C4.20312 11.5875 4.1 11.4843 4.1 11.3578C4.1 11.2312 4.20312 11.1281 4.32969 11.1281H5.01719C5.14375 11.1281 5.24687 11.2312 5.24687 11.3578C5.24687 11.4859 5.14375 11.5875 5.01719 11.5875Z" fill="#B2947C"/>
<path d="M9.95312 6.65151C9.82656 6.65151 9.72344 6.54839 9.72344 6.42183V5.73433C9.72344 5.60776 9.82656 5.50464 9.95312 5.50464C10.0797 5.50464 10.1828 5.60776 10.1828 5.73433V6.42183C10.1828 6.54839 10.0797 6.65151 9.95312 6.65151ZM9.95312 17.2125C9.82656 17.2125 9.72344 17.1093 9.72344 16.9828V16.2953C9.72344 16.1687 9.82656 16.0656 9.95312 16.0656C10.0797 16.0656 10.1828 16.1687 10.1828 16.2953V16.9828C10.1828 17.1093 10.0797 17.2125 9.95312 17.2125ZM7.28594 7.19839L6.94219 6.60308C6.87812 6.4937 6.91562 6.35308 7.02656 6.28901C7.13594 6.22495 7.27656 6.26245 7.34062 6.37339L7.68437 6.9687C7.74844 7.07808 7.71094 7.2187 7.6 7.28276C7.49062 7.34526 7.35 7.30776 7.28594 7.19839ZM12.5672 16.3437L12.2234 15.7484C12.1594 15.639 12.1984 15.4984 12.3078 15.4343C12.4172 15.3703 12.5578 15.4093 12.6219 15.5187L12.9656 16.114C13.0297 16.2234 12.9906 16.364 12.8812 16.4281C12.7703 16.4906 12.6297 16.4531 12.5672 16.3437Z" fill="#B2947C"/>
<path d="M7.28594 7.19844L6.94219 6.60313C6.87812 6.49375 6.91562 6.35313 7.02656 6.28906C7.13594 6.225 7.27656 6.2625 7.34062 6.37344L7.68437 6.96875C7.74844 7.07813 7.71094 7.21875 7.6 7.28281C7.49062 7.34531 7.35 7.30781 7.28594 7.19844ZM12.5672 16.3438L12.2234 15.7484C12.1594 15.6391 12.1984 15.4984 12.3078 15.4344C12.4172 15.3703 12.5578 15.4094 12.6219 15.5188L12.9656 16.1141C13.0297 16.2234 12.9906 16.3641 12.8812 16.4281C12.7703 16.4906 12.6297 16.4531 12.5672 16.3438ZM5.56406 9.08906L4.96875 8.74531C4.85937 8.68125 4.82187 8.54219 4.88437 8.43125C4.94844 8.32188 5.0875 8.28438 5.19844 8.34688L5.79375 8.69063C5.90312 8.75469 5.94062 8.89375 5.87812 9.00469C5.81406 9.11563 5.67344 9.15313 5.56406 9.08906ZM14.7094 14.3688L14.1141 14.025C14.0047 13.9609 13.9672 13.8219 14.0297 13.7109C14.0937 13.6016 14.2328 13.5641 14.3438 13.6266L14.9391 13.9703C15.0484 14.0344 15.0859 14.1734 15.0234 14.2844C14.9594 14.3953 14.8187 14.4328 14.7094 14.3688ZM12.3062 7.28281C12.1969 7.21875 12.1594 7.07969 12.2219 6.96875L12.5656 6.37344C12.6297 6.26406 12.7687 6.22656 12.8797 6.28906C12.9891 6.35313 13.0266 6.49219 12.9641 6.60313L12.6203 7.19844C12.5562 7.30781 12.4172 7.34531 12.3062 7.28281ZM7.02656 16.4281C6.91719 16.3641 6.87969 16.225 6.94219 16.1141L7.28594 15.5188C7.35 15.4094 7.48906 15.3719 7.6 15.4344C7.70937 15.4984 7.74687 15.6375 7.68437 15.7484L7.34062 16.3438C7.27656 16.4531 7.13594 16.4906 7.02656 16.4281ZM14.0297 9.00469C13.9656 8.89531 14.0031 8.75469 14.1141 8.69063L14.7094 8.34688C14.8187 8.28281 14.9594 8.32188 15.0234 8.43125C15.0875 8.54063 15.0484 8.68125 14.9391 8.74531L14.3438 9.08906C14.2328 9.15313 14.0922 9.11563 14.0297 9.00469ZM4.88437 14.2859C4.82031 14.1766 4.85937 14.0359 4.96875 13.9719L5.56406 13.6281C5.67344 13.5641 5.81406 13.6031 5.87812 13.7125C5.94219 13.8219 5.90312 13.9625 5.79375 14.0266L5.19844 14.3703C5.0875 14.4328 4.94687 14.3953 4.88437 14.2859Z" fill="#B2947C"/>
<path d="M7.42031 9.92041L9.95312 11.3595" stroke="#563428" stroke-width="0.625" stroke-miterlimit="10" stroke-linecap="round"/>
<path d="M13.5734 9.28271L10.0687 11.3593" stroke="#563428" stroke-width="0.4375" stroke-miterlimit="10" stroke-linecap="round"/>
<path d="M14.3734 5.07661L13.7266 4.65317L15.9281 0.753174L16.6 1.13286L14.3734 5.07661Z" fill="#82AEC0"/>
<path d="M17.3703 5.50152C17.5625 5.55777 17.7688 5.45152 17.8281 5.26089C18.3344 3.6437 17.6781 1.88433 16.0906 1.06714C14.4922 0.243704 12.7563 0.784329 11.7453 2.16402C11.6313 2.3187 11.6578 2.53589 11.8016 2.66245C12.1281 2.95152 12.8531 3.49527 14.2984 4.22652C15.825 4.99839 16.8719 5.35464 17.3703 5.50152Z" fill="#CC2929"/>
<path d="M16.5391 1.60942C16.5391 1.60942 16.9469 1.08911 16.3547 0.759424C15.8938 0.503174 15.6016 1.06411 15.6016 1.06411C15.5 1.25005 16.4688 1.73755 16.5391 1.60942ZM5.56719 5.0813L3.3375 1.13286L4.01094 0.753174L6.17656 4.59067L5.56719 5.0813Z" fill="#82AEC0"/>
<path d="M2.62969 5.50152C2.4375 5.55777 2.23125 5.45152 2.17188 5.26089C1.66563 3.6437 2.32188 1.88433 3.90938 1.06714C5.50781 0.243704 7.24375 0.784329 8.25469 2.16402C8.36875 2.3187 8.34219 2.53589 8.19844 2.66245C7.87188 2.95152 7.14688 3.49527 5.70156 4.22652C4.175 4.99839 3.12813 5.35464 2.62969 5.50152Z" fill="#CC2929"/>
<path d="M3.46093 1.60942C3.46093 1.60942 3.05312 1.08911 3.64531 0.759424C4.10625 0.503174 4.39843 1.06411 4.39843 1.06411C4.5 1.25005 3.53125 1.73755 3.46093 1.60942Z" fill="#82AEC0"/>
<path d="M9.95312 3.62812V1.48438" stroke="#82AEC0" stroke-width="0.46325" stroke-miterlimit="10"/>
<path d="M9.9625 2.24683C9.35 2.24683 8.73594 2.01245 8.73594 2.01245V1.54839C8.73594 1.54839 9.30625 1.2937 9.99219 1.2937C10.6781 1.2937 11.1875 1.54839 11.1875 1.54839V2.01245C11.1891 2.01401 10.5766 2.24683 9.9625 2.24683Z" fill="#82AEC0"/>
<path d="M8.89063 1.52979C8.82344 1.55479 8.81719 1.64697 8.87969 1.68291C8.97031 1.73447 9.07813 1.7876 9.11563 1.78135C9.63125 1.70166 10.3797 1.74072 10.8969 1.81885C10.9328 1.8251 11.0359 1.7376 11.1094 1.67197C11.15 1.63447 11.1406 1.57041 11.0906 1.54697C10.9281 1.47354 10.5609 1.34229 9.99219 1.34229C9.46719 1.34229 9.0875 1.45322 8.89063 1.52979Z" fill="#94D1E0"/>
<path d="M14.8531 1.23449C14.9016 1.40011 14.7234 1.53605 14.5797 1.63136C14.2173 1.8748 13.9261 2.21021 13.7359 2.60324C13.6453 2.79074 13.5438 3.02043 13.3359 3.05011C13.2531 3.06105 13.1719 3.03605 13.0938 3.00793C12.9734 2.96418 12.8563 2.91418 12.7422 2.85636C12.6063 2.78761 12.4672 2.70011 12.4047 2.56105C12.3234 2.37824 12.4 2.16261 12.5094 1.99386C12.7703 1.59543 13.1953 1.34855 13.6328 1.18605C13.8969 1.08761 14.7219 0.786051 14.8531 1.23449ZM4.08281 2.55168C4.18438 2.76261 4.29844 2.9673 4.425 3.16418C4.57969 3.4048 4.75938 3.67355 4.69375 3.95168C4.61719 4.27043 4.26406 4.42355 3.95313 4.5298C3.79375 4.58449 3.63594 4.63918 3.47656 4.69386C3.39219 4.72355 3.30313 4.75324 3.21406 4.74855C3.07344 4.7423 2.94688 4.65324 2.86719 4.53918C2.78594 4.42511 2.74531 4.28761 2.71406 4.15168C2.59688 3.62824 2.62031 3.07355 2.78125 2.56105C2.875 2.2673 3.02188 1.95793 3.35469 1.93449C3.75938 1.90636 3.93125 2.23605 4.08281 2.55168Z" fill="#FF4638"/>
</svg>
