<svg width="22" height="22" viewBox="0 0 22 22" fill="none" xmlns="http://www.w3.org/2000/svg">
<path d="M1.08797 11.4073V21.3279H21.0358V11.3695C21.0358 11.3695 17.0448 8.61606 16.8609 8.59028C16.677 8.5645 11.3162 3.65747 11.3162 3.65747L5.40719 8.42356L1.08797 11.4073Z" fill="#F8C778"/>
<path d="M1.08797 11.397H5.79734L5.79219 21.3177H6.57422L6.57937 9.24001L11.1994 5.17345L15.8606 9.43595L15.8486 21.3177H16.5808L16.5928 11.3403L21.0358 11.3713V10.7783L16.983 8.6058L11.562 3.84314L5.57734 8.50783L1.0914 10.8299L1.08797 11.397Z" fill="#F5B03F"/>
<path d="M2.25156 7.31677C2.22063 7.36662 1.02266 10.6701 1.00031 10.7388C0.97797 10.8076 1.03469 10.8883 1.17219 10.9004C1.30969 10.9124 6.05172 10.9004 6.05172 10.9004L6.03797 8.87568C6.03797 8.87568 11.1289 4.29349 11.1856 4.29349C11.2423 4.29349 16.3728 8.99427 16.3848 9.06474C16.3969 9.13349 16.4072 10.8213 16.4072 10.8213C16.4072 10.8213 20.9189 10.8557 21.0117 10.8677C21.1045 10.8797 21.1269 10.7526 21.0461 10.5119C20.9653 10.2713 20.0234 7.36662 19.9547 7.32021C19.8859 7.2738 16.1666 7.2738 16.1666 7.2738C16.1666 7.2738 11.507 2.9838 11.4263 2.91505C11.3455 2.8463 11.1048 2.74146 10.8917 2.95458C10.7044 3.14193 6.05688 7.30818 6.05688 7.30818C6.05688 7.30818 2.28594 7.25833 2.25156 7.31677Z" fill="#A62714"/>
<path d="M7.54703 13.8514L7.54531 21.3245H14.8259V13.8514C14.8259 13.8514 7.54703 13.8325 7.54703 13.8514Z" fill="#CF6150"/>
<path d="M0.625624 21.3555C0.689218 21.4517 1.43172 21.4071 3.41 21.4174C5.38828 21.4277 5.96406 21.4242 6.06719 21.4036C6.16859 21.383 6.25109 20.9378 6.18406 20.5511C6.11016 20.1266 5.85578 19.7261 5.44328 19.5972C4.89156 19.4253 4.55125 19.5835 4.28656 19.4906C4.02187 19.3996 3.24672 19.0111 2.46125 19.0627C1.7875 19.1056 1.30797 19.3033 0.890311 19.9186C0.441718 20.5803 0.584374 21.2936 0.625624 21.3555ZM21.6717 21.3142C21.7731 21.2438 21.7645 19.2913 20.4067 19.1417C19.3875 19.03 19.1211 19.4683 18.9492 19.4683C18.7756 19.4683 18.1156 19.1469 17.2047 19.4992C16.072 19.9375 16.0927 21.2128 16.1339 21.3349C16.1752 21.4569 17.3473 21.426 18.9578 21.4363C20.5683 21.4466 21.5394 21.4071 21.6717 21.3142Z" fill="#7DB240"/>
<path d="M1.98859 11.9677H5.20094V14.5544H1.94563C1.94563 14.5544 1.96625 11.9883 1.98859 11.9677ZM1.94563 15.7627H5.14422V18.2652H1.91813C1.91813 18.2669 1.93188 15.7489 1.94563 15.7627Z" fill="#3E737C"/>
<path d="M2.475 12.4403H4.65781V14.1505H2.4475C2.4475 14.1505 2.43203 12.4541 2.475 12.4403ZM2.37703 16.1803H4.68531V17.8355H2.37703V16.1803Z" fill="#A7D0D7"/>
<path d="M17.1308 12.1206H20.3294V14.6936H17.117C17.117 14.6936 17.1308 12.0794 17.1308 12.1206Z" fill="#3E737C"/>
<path d="M17.5759 12.5658H19.8705V14.2347H17.5759V12.5658Z" fill="#A7D0D7"/>
<path d="M17.0895 15.9156H20.2744V18.3494H17.0895C17.0895 18.3494 17.0689 15.938 17.0895 15.9156Z" fill="#3E737C"/>
<path d="M17.5897 16.3608V17.863H19.7725V16.347C19.7725 16.347 17.5691 16.3402 17.5897 16.3608Z" fill="#A7D0D7"/>
<path d="M8.60406 21.328L8.60234 14.6661H13.8445V21.328H8.60406Z" fill="#3E737C"/>
<path d="M13.2241 16.0256V15.149H9.25031V16.0256H13.2241ZM9.25031 16.4639H13.2241V18.7447H9.25031V16.4639ZM9.25031 19.2139H13.2241V20.4067H9.25031V19.2139Z" fill="#A7D0D7"/>
<path d="M11.0481 16.268V20.7557H11.5019V16.2216C11.5019 16.2216 11.0791 16.268 11.0481 16.268ZM11.0791 6.88536C9.29672 6.90083 8.10219 8.22942 8.19328 9.93786C8.28094 11.5982 9.59922 12.6397 11.1237 12.5968C12.7256 12.5521 13.8738 11.2665 13.9184 9.74192C13.9631 8.21739 12.7256 6.87161 11.0791 6.88536Z" fill="#3E737C"/>
<path d="M11.0344 7.39917C9.58375 7.39917 8.61609 8.50261 8.67797 9.8312C8.7364 11.1134 9.59922 12.0828 11.0808 12.0828C12.4403 12.0828 13.3341 10.9656 13.3616 9.81573C13.3908 8.56105 12.4541 7.39917 11.0344 7.39917Z" fill="white"/>
<path d="M10.6116 9.87591C10.6116 9.87591 9.76938 10.584 9.72297 10.6665C9.67656 10.749 9.67828 10.8848 9.79 10.9759C9.90344 11.067 10.0152 11.0137 10.0839 10.9604C10.1509 10.9072 11.0395 10.1784 11.0395 10.1784C11.0395 10.1784 11.3266 10.1733 11.3936 9.83294C11.4469 9.56138 11.2509 9.43419 11.2509 9.43419C11.2509 9.43419 11.22 7.80826 11.2063 7.68794C11.1942 7.59857 11.1014 7.51435 11.0189 7.52294C10.9364 7.52982 10.8539 7.57623 10.8453 7.71029C10.8367 7.84435 10.8281 9.40154 10.8281 9.40154C10.8281 9.40154 10.7078 9.44623 10.6408 9.57513C10.5738 9.70232 10.6116 9.87591 10.6116 9.87591Z" fill="#2F2F2F"/>
</svg>
