<svg width="30" height="30" viewBox="0 0 30 30" fill="none" xmlns="http://www.w3.org/2000/svg">
<path fill-rule="evenodd" clip-rule="evenodd" d="M17.76 6.0375C18.3267 6.2125 18.8683 6.4375 19.385 6.7125L21.6763 5.3375C21.9152 5.1942 22.1951 5.13482 22.4716 5.16879C22.7481 5.20276 23.0054 5.32814 23.2025 5.525L24.475 6.7975C24.6719 6.99463 24.7972 7.25187 24.8312 7.52838C24.8652 7.8049 24.8058 8.08484 24.6625 8.32375L23.2875 10.615C23.5625 11.1317 23.7875 11.6733 23.9625 12.24L26.5537 12.8888C26.8241 12.9565 27.064 13.1126 27.2354 13.3322C27.4069 13.5519 27.5 13.8226 27.5 14.1012V15.8988C27.5 16.1774 27.4069 16.4481 27.2354 16.6678C27.064 16.8874 26.8241 17.0435 26.5537 17.1112L23.9625 17.76C23.7875 18.3267 23.5625 18.8683 23.2875 19.385L24.6625 21.6763C24.8058 21.9152 24.8652 22.1951 24.8312 22.4716C24.7972 22.7481 24.6719 23.0054 24.475 23.2025L23.2025 24.475C23.0054 24.6719 22.7481 24.7972 22.4716 24.8312C22.1951 24.8652 21.9152 24.8058 21.6763 24.6625L19.385 23.2875C18.8683 23.5625 18.3267 23.7875 17.76 23.9625L17.1112 26.5537C17.0435 26.8241 16.8874 27.064 16.6678 27.2354C16.4481 27.4069 16.1774 27.5 15.8988 27.5H14.1012C13.8226 27.5 13.5519 27.4069 13.3322 27.2354C13.1126 27.064 12.9565 26.8241 12.8888 26.5537L12.24 23.9625C11.6784 23.7889 11.1343 23.5629 10.615 23.2875L8.32375 24.6625C8.08484 24.8058 7.8049 24.8652 7.52838 24.8312C7.25187 24.7972 6.99463 24.6719 6.7975 24.475L5.525 23.2025C5.32814 23.0054 5.20276 22.7481 5.16879 22.4716C5.13482 22.1951 5.1942 21.9152 5.3375 21.6763L6.7125 19.385C6.43705 18.8657 6.21106 18.3216 6.0375 17.76L3.44625 17.1112C3.17615 17.0436 2.93637 16.8877 2.76495 16.6683C2.59353 16.4488 2.50029 16.1784 2.5 15.9V14.1025C2.50001 13.8238 2.59313 13.5532 2.76457 13.3335C2.93601 13.1138 3.17594 12.9577 3.44625 12.89L6.0375 12.2413C6.2125 11.6746 6.4375 11.1329 6.7125 10.6163L5.3375 8.325C5.1942 8.08609 5.13482 7.80615 5.16879 7.52963C5.20276 7.25312 5.32814 6.99588 5.525 6.79875L6.7975 5.525C6.99463 5.32814 7.25187 5.20276 7.52838 5.16879C7.8049 5.13482 8.08484 5.1942 8.32375 5.3375L10.615 6.7125C11.1317 6.4375 11.6733 6.2125 12.24 6.0375L12.8888 3.44625C12.9564 3.17615 13.1123 2.93637 13.3317 2.76495C13.5512 2.59353 13.8216 2.50029 14.1 2.5H15.8975C16.1762 2.50001 16.4468 2.59313 16.6665 2.76457C16.8862 2.93601 17.0423 3.17594 17.11 3.44625L17.76 6.0375ZM15 20C16.3261 20 17.5979 19.4732 18.5355 18.5355C19.4732 17.5979 20 16.3261 20 15C20 13.6739 19.4732 12.4021 18.5355 11.4645C17.5979 10.5268 16.3261 10 15 10C13.6739 10 12.4021 10.5268 11.4645 11.4645C10.5268 12.4021 10 13.6739 10 15C10 16.3261 10.5268 17.5979 11.4645 18.5355C12.4021 19.4732 13.6739 20 15 20Z" fill="#757575"/>
</svg>
