<svg width="17" height="17" viewBox="0 0 17 17" fill="none" xmlns="http://www.w3.org/2000/svg">
<g clip-path="url(#clip0_86_1160)">
<path d="M6.90625 1.0625H10.0938C10.2346 1.0625 10.3698 1.11847 10.4694 1.2181C10.569 1.31773 10.625 1.45285 10.625 1.59375V2.65625H6.375V1.59375C6.375 1.45285 6.43097 1.31773 6.5306 1.2181C6.63023 1.11847 6.76535 1.0625 6.90625 1.0625ZM11.6875 2.65625V1.59375C11.6875 1.17106 11.5196 0.765685 11.2207 0.466799C10.9218 0.167912 10.5164 0 10.0938 0L6.90625 0C6.48356 0 6.07818 0.167912 5.7793 0.466799C5.48041 0.765685 5.3125 1.17106 5.3125 1.59375V2.65625H1.59375C1.45285 2.65625 1.31773 2.71222 1.2181 2.81185C1.11847 2.91148 1.0625 3.0466 1.0625 3.1875C1.0625 3.3284 1.11847 3.46352 1.2181 3.56315C1.31773 3.66278 1.45285 3.71875 1.59375 3.71875H2.16538L3.07169 15.045C3.11443 15.5775 3.35618 16.0744 3.74879 16.4367C4.14141 16.799 4.65608 17.0001 5.19031 17H11.8097C12.3439 17.0001 12.8586 16.799 13.2512 16.4367C13.6438 16.0744 13.8856 15.5775 13.9283 15.045L14.8346 3.71875H15.4062C15.5471 3.71875 15.6823 3.66278 15.7819 3.56315C15.8815 3.46352 15.9375 3.3284 15.9375 3.1875C15.9375 3.0466 15.8815 2.91148 15.7819 2.81185C15.6823 2.71222 15.5471 2.65625 15.4062 2.65625H11.6875ZM13.7679 3.71875L12.869 14.96C12.8476 15.2263 12.7268 15.4747 12.5304 15.6558C12.3341 15.837 12.0768 15.9376 11.8097 15.9375H5.19031C4.9232 15.9376 4.66586 15.837 4.46955 15.6558C4.27324 15.4747 4.15237 15.2263 4.131 14.96L3.23213 3.71875H13.7679ZM5.81294 4.78125C5.95354 4.77312 6.09162 4.82116 6.19682 4.9148C6.30201 5.00844 6.36572 5.14003 6.37394 5.28062L6.90519 14.3119C6.91077 14.4508 6.86164 14.5864 6.76836 14.6896C6.67507 14.7927 6.54506 14.8551 6.40625 14.8635C6.26743 14.8718 6.13088 14.8254 6.02591 14.7342C5.92094 14.643 5.85592 14.5142 5.84481 14.3756L5.3125 5.34438C5.30819 5.27458 5.31769 5.20463 5.34048 5.13851C5.36326 5.0724 5.39887 5.01144 5.44526 4.95913C5.49166 4.90681 5.54792 4.86416 5.61084 4.83364C5.67375 4.80312 5.74207 4.78531 5.81187 4.78125H5.81294ZM11.1871 4.78125C11.2569 4.78531 11.3252 4.80312 11.3881 4.83364C11.451 4.86416 11.5073 4.90681 11.5537 4.95913C11.6001 5.01144 11.6357 5.0724 11.6585 5.13851C11.6812 5.20463 11.6908 5.27458 11.6864 5.34438L11.1552 14.3756C11.1524 14.4462 11.1355 14.5155 11.1055 14.5795C11.0756 14.6435 11.0331 14.7009 10.9807 14.7483C10.9283 14.7957 10.867 14.8322 10.8003 14.8556C10.7337 14.879 10.663 14.8888 10.5925 14.8846C10.522 14.8804 10.453 14.8621 10.3896 14.8309C10.3262 14.7996 10.2697 14.7561 10.2234 14.7028C10.177 14.6494 10.1418 14.5874 10.1197 14.5203C10.0976 14.4531 10.0892 14.3823 10.0948 14.3119L10.6261 5.28062C10.6343 5.14003 10.698 5.00844 10.8032 4.9148C10.9084 4.82116 11.0465 4.77312 11.1871 4.78125ZM8.5 4.78125C8.6409 4.78125 8.77602 4.83722 8.87565 4.93685C8.97528 5.03648 9.03125 5.1716 9.03125 5.3125V14.3438C9.03125 14.4846 8.97528 14.6198 8.87565 14.7194C8.77602 14.819 8.6409 14.875 8.5 14.875C8.3591 14.875 8.22398 14.819 8.12435 14.7194C8.02472 14.6198 7.96875 14.4846 7.96875 14.3438V5.3125C7.96875 5.1716 8.02472 5.03648 8.12435 4.93685C8.22398 4.83722 8.3591 4.78125 8.5 4.78125Z" fill="black"/>
</g>
<defs>
<clipPath id="clip0_86_1160">
<rect width="17" height="17" fill="white"/>
</clipPath>
</defs>
</svg>
