<svg width="23" height="23" viewBox="0 0 23 23" fill="none" xmlns="http://www.w3.org/2000/svg">
<g clip-path="url(#clip0_399_448)">
<path d="M11.8594 4.24062C11.8594 4.42031 11.6797 4.6 11.5 4.6C11.3203 4.6 11.1406 4.42031 11.1406 4.24062V0.359375C11.1406 0.14375 11.3203 0 11.5 0C11.6797 0 11.8594 0.14375 11.8594 0.359375V4.24062Z" fill="#B2C1C0"/>
<path d="M1.4375 10.0625H21.5625V21.5625H1.4375V10.0625Z" fill="#E5DEC1"/>
<path d="M21.7422 7.11562C21.5625 6.75625 21.0953 6.46875 20.6641 6.46875H2.3C1.90469 6.46875 1.40157 6.75625 1.22188 7.11562L0.035942 9.41563C-0.143746 9.775 0.035942 10.0625 0.431254 10.0625H22.4969C22.8922 10.0625 23.0719 9.775 22.8922 9.41563L21.7422 7.11562Z" fill="#D33B23"/>
<path d="M5.39062 16.1719C5.39062 16.3516 5.24688 16.5312 5.03125 16.5312H2.875C2.65937 16.5312 2.51562 16.3516 2.51562 16.1719V14.7344C2.51562 14.5547 2.65937 14.375 2.875 14.375H5.03125C5.24688 14.375 5.39062 14.5547 5.39062 14.7344V16.1719ZM5.39062 12.5781C5.39062 12.7578 5.24688 12.9375 5.03125 12.9375H2.875C2.65937 12.9375 2.51562 12.7578 2.51562 12.5781V11.1406C2.51562 10.9609 2.65937 10.7812 2.875 10.7812H5.03125C5.24688 10.7812 5.39062 10.9609 5.39062 11.1406V12.5781Z" fill="#D6EEF0"/>
<path d="M5.03125 13.1172H2.875C2.5875 13.1172 2.33594 12.8656 2.33594 12.5781V11.1406C2.33594 10.8531 2.5875 10.6016 2.875 10.6016H5.03125C5.31875 10.6016 5.57031 10.8531 5.57031 11.1406V12.5781C5.57031 12.8656 5.31875 13.1172 5.03125 13.1172ZM2.875 10.9609C2.76719 10.9609 2.69531 11.0328 2.69531 11.1406V12.5781C2.69531 12.6859 2.76719 12.7578 2.875 12.7578H5.03125C5.13906 12.7578 5.21094 12.6859 5.21094 12.5781V11.1406C5.21094 11.0328 5.13906 10.9609 5.03125 10.9609H2.875Z" fill="#DBB471"/>
<path d="M3.77344 10.7812H4.13281V12.9375H3.77344V10.7812ZM5.03125 16.8906H2.875C2.5875 16.8906 2.33594 16.6391 2.33594 16.3516V14.9141C2.33594 14.6266 2.5875 14.375 2.875 14.375H5.03125C5.31875 14.375 5.57031 14.6266 5.57031 14.9141V16.3516C5.57031 16.6391 5.31875 16.8906 5.03125 16.8906ZM2.875 14.7344C2.76719 14.7344 2.69531 14.8063 2.69531 14.9141V16.3516C2.69531 16.4594 2.76719 16.5312 2.875 16.5312H5.03125C5.13906 16.5312 5.21094 16.4594 5.21094 16.3516V14.9141C5.21094 14.8063 5.13906 14.7344 5.03125 14.7344H2.875Z" fill="#DBB471"/>
<path d="M3.77344 14.5547H4.13281V16.7109H3.77344V14.5547Z" fill="#DBB471"/>
<path d="M5.39062 19.7656C5.39062 19.9453 5.24688 20.125 5.03125 20.125H2.875C2.65937 20.125 2.51562 19.9453 2.51562 19.7656V18.3281C2.51562 18.1484 2.65937 17.9688 2.875 17.9688H5.03125C5.24688 17.9688 5.39062 18.1484 5.39062 18.3281V19.7656Z" fill="#D6EEF0"/>
<path d="M5.03125 20.4844H2.875C2.5875 20.4844 2.33594 20.2328 2.33594 19.9453V18.5078C2.33594 18.2203 2.5875 17.9688 2.875 17.9688H5.03125C5.31875 17.9688 5.57031 18.2203 5.57031 18.5078V19.9453C5.57031 20.2328 5.31875 20.4844 5.03125 20.4844ZM2.875 18.3281C2.76719 18.3281 2.69531 18.4 2.69531 18.5078V19.9453C2.69531 20.0531 2.76719 20.125 2.875 20.125H5.03125C5.13906 20.125 5.21094 20.0531 5.21094 19.9453V18.5078C5.21094 18.4 5.13906 18.3281 5.03125 18.3281H2.875Z" fill="#DBB471"/>
<path d="M3.77344 18.1484H4.13281V20.3047H3.77344V18.1484Z" fill="#DBB471"/>
<path d="M20.4844 16.1719C20.4844 16.3516 20.3047 16.5312 20.125 16.5312H17.9688C17.7891 16.5312 17.6094 16.3516 17.6094 16.1719V14.7344C17.6094 14.5547 17.7891 14.375 17.9688 14.375H20.125C20.3047 14.375 20.4844 14.5547 20.4844 14.7344V16.1719ZM20.4844 12.5781C20.4844 12.7578 20.3047 12.9375 20.125 12.9375H17.9688C17.7891 12.9375 17.6094 12.7578 17.6094 12.5781V11.1406C17.6094 10.9609 17.7891 10.7812 17.9688 10.7812H20.125C20.3047 10.7812 20.4844 10.9609 20.4844 11.1406V12.5781Z" fill="#D6EEF0"/>
<path d="M20.125 13.1172H17.9688C17.6813 13.1172 17.4297 12.8656 17.4297 12.5781V11.1406C17.4297 10.8531 17.6813 10.6016 17.9688 10.6016H20.125C20.4125 10.6016 20.6641 10.8531 20.6641 11.1406V12.5781C20.6641 12.8656 20.4125 13.1172 20.125 13.1172ZM17.9688 10.9609C17.8609 10.9609 17.7891 11.0328 17.7891 11.1406V12.5781C17.7891 12.6859 17.8609 12.7578 17.9688 12.7578H20.125C20.2328 12.7578 20.3047 12.6859 20.3047 12.5781V11.1406C20.3047 11.0328 20.2328 10.9609 20.125 10.9609H17.9688Z" fill="#DBB471"/>
<path d="M18.8672 10.7812H19.2266V12.9375H18.8672V10.7812ZM20.125 16.8906H17.9688C17.6813 16.8906 17.4297 16.6391 17.4297 16.3516V14.9141C17.4297 14.6266 17.6813 14.375 17.9688 14.375H20.125C20.4125 14.375 20.6641 14.6266 20.6641 14.9141V16.3516C20.6641 16.6391 20.4125 16.8906 20.125 16.8906ZM17.9688 14.7344C17.8609 14.7344 17.7891 14.8063 17.7891 14.9141V16.3516C17.7891 16.4594 17.8609 16.5312 17.9688 16.5312H20.125C20.2328 16.5312 20.3047 16.4594 20.3047 16.3516V14.9141C20.3047 14.8063 20.2328 14.7344 20.125 14.7344H17.9688Z" fill="#DBB471"/>
<path d="M18.8672 14.5547H19.2266V16.7109H18.8672V14.5547Z" fill="#DBB471"/>
<path d="M20.4844 19.7656C20.4844 19.9453 20.3047 20.125 20.125 20.125H17.9688C17.7891 20.125 17.6094 19.9453 17.6094 19.7656V18.3281C17.6094 18.1484 17.7891 17.9688 17.9688 17.9688H20.125C20.3047 17.9688 20.4844 18.1484 20.4844 18.3281V19.7656Z" fill="#D6EEF0"/>
<path d="M20.125 20.4844H17.9688C17.6813 20.4844 17.4297 20.2328 17.4297 19.9453V18.5078C17.4297 18.2203 17.6813 17.9688 17.9688 17.9688H20.125C20.4125 17.9688 20.6641 18.2203 20.6641 18.5078V19.9453C20.6641 20.2328 20.4125 20.4844 20.125 20.4844ZM17.9688 18.3281C17.8609 18.3281 17.7891 18.4 17.7891 18.5078V19.9453C17.7891 20.0531 17.8609 20.125 17.9688 20.125H20.125C20.2328 20.125 20.3047 20.0531 20.3047 19.9453V18.5078C20.3047 18.4 20.2328 18.3281 20.125 18.3281H17.9688Z" fill="#DBB471"/>
<path d="M18.8672 18.1484H19.2266V20.3047H18.8672V18.1484Z" fill="#DBB471"/>
<path d="M11.7875 4.16875C11.6438 4.06094 11.3922 4.06094 11.2125 4.16875L4.24063 9.84687C4.09688 9.95469 4.09688 10.0625 4.3125 10.0625H18.6875C18.8672 10.0625 18.9391 9.95469 18.7594 9.84687L11.7875 4.16875Z" fill="#F15744"/>
<path d="M17.3218 9.84697L11.7875 5.24697C11.6437 5.10322 11.3922 5.10322 11.2484 5.24697L5.6781 9.84697C5.49841 9.95478 5.53435 10.0626 5.74997 10.0626H6.46872V21.5626H16.5312V10.0626H17.25C17.4297 10.0626 17.5015 9.95478 17.3218 9.84697Z" fill="#F9F3D9"/>
<path d="M8.625 16.1719H14.375V21.5625H8.625V16.1719Z" fill="#E5DEC1"/>
<path d="M9.34375 16.1719H13.6562V21.5625H9.34375V16.1719Z" fill="#42ADE2"/>
<path d="M7.25939 13.6562C7.3672 13.6922 7.51095 13.7281 7.6547 13.7281C7.83439 13.7281 7.90626 13.6562 7.90626 13.5844C7.90626 13.5125 7.83439 13.4406 7.6547 13.4047C7.40314 13.3328 7.22345 13.1891 7.22345 13.0094C7.22345 12.7578 7.43907 12.5781 7.83439 12.5781C8.01407 12.5781 8.15782 12.6141 8.2297 12.65L8.15782 12.9016C8.08595 12.8656 7.97814 12.8297 7.83439 12.8297C7.69064 12.8297 7.61876 12.9016 7.61876 12.9734C7.61876 13.0453 7.69064 13.1172 7.90626 13.1531C8.19376 13.2609 8.30157 13.3687 8.30157 13.5844C8.30157 13.8 8.08595 14.0156 7.6547 14.0156C7.47501 14.0156 7.29532 13.9797 7.22345 13.9437L7.25939 13.6562ZM9.6672 13.9437C9.59532 13.9797 9.45157 14.0156 9.27189 14.0156C8.73282 14.0156 8.44532 13.7281 8.44532 13.3328C8.44532 12.8656 8.84064 12.5781 9.30782 12.5781C9.48751 12.5781 9.63126 12.6141 9.70314 12.65L9.63126 12.9016C9.55939 12.8656 9.45157 12.8656 9.34376 12.8656C9.05626 12.8656 8.84064 13.0094 8.84064 13.3328C8.84064 13.6203 9.02032 13.8 9.34376 13.8C9.45157 13.8 9.55939 13.7641 9.63126 13.7641L9.6672 13.9437ZM10.2422 12.6141V13.1531H10.8172V12.6141H11.1766V14.0156H10.8172V13.4406H10.2422V14.0156H9.88282V12.6141H10.2422ZM12.9375 13.2969C12.9375 13.7641 12.6141 14.0156 12.1828 14.0156C11.7156 14.0156 11.4281 13.6922 11.4281 13.2969C11.4281 12.8656 11.7156 12.5781 12.1828 12.5781C12.65 12.5781 12.9375 12.9016 12.9375 13.2969ZM11.7875 13.2969C11.7875 13.5844 11.9313 13.7641 12.1828 13.7641C12.4344 13.7641 12.5422 13.5484 12.5422 13.2969C12.5422 13.0453 12.3984 12.8297 12.1469 12.8297C11.9313 12.8297 11.7875 13.0453 11.7875 13.2969ZM14.5906 13.2969C14.5906 13.7641 14.2672 14.0156 13.8359 14.0156C13.3688 14.0156 13.0813 13.6922 13.0813 13.2969C13.0813 12.8656 13.3688 12.5781 13.8359 12.5781C14.3391 12.5781 14.5906 12.9016 14.5906 13.2969ZM13.4766 13.2969C13.4766 13.5844 13.6203 13.7641 13.8719 13.7641C14.1234 13.7641 14.2313 13.5484 14.2313 13.2969C14.2313 13.0453 14.0875 12.8297 13.8359 12.8297C13.6203 12.8297 13.4766 13.0453 13.4766 13.2969ZM14.8422 12.6141H15.2016V13.7281H15.8125V13.9797H14.8422V12.6141Z" fill="#89664C"/>
<path d="M11.5 11.8594C12.8893 11.8594 14.0156 10.7331 14.0156 9.34375C14.0156 7.95441 12.8893 6.82812 11.5 6.82812C10.1107 6.82812 8.98438 7.95441 8.98438 9.34375C8.98438 10.7331 10.1107 11.8594 11.5 11.8594Z" fill="#DBB471"/>
<path d="M11.5 11.1406C12.4924 11.1406 13.2969 10.3361 13.2969 9.34375C13.2969 8.35136 12.4924 7.54688 11.5 7.54688C10.5076 7.54688 9.70312 8.35136 9.70312 9.34375C9.70312 10.3361 10.5076 11.1406 11.5 11.1406Z" fill="white"/>
<path d="M11.3203 16.1719H11.6797V21.5625H11.3203V16.1719Z" fill="#E5DEC1"/>
<path d="M11.5 7.90625C11.3203 7.90625 11.1406 8.08594 11.1406 8.26562V9.70312C11.1406 9.88281 11.3203 10.0625 11.5 10.0625C11.6797 10.0625 11.8594 9.88281 11.8594 9.70312V8.26562C11.8594 8.08594 11.6797 7.90625 11.5 7.90625Z" fill="#B2C1C0"/>
<path d="M11.5 9.34375H10.7812C10.6016 9.34375 10.4219 9.52344 10.4219 9.70312C10.4219 9.88281 10.6016 10.0625 10.7812 10.0625H11.5C11.6797 10.0625 11.8594 9.88281 11.8594 9.70312C11.8594 9.52344 11.6797 9.34375 11.5 9.34375Z" fill="#F15744"/>
<path d="M11.8594 0.71875V3.37812C13.2969 4.52812 14.7344 0.898437 16.1719 2.04844C14.7344 0 13.2969 2.73125 11.8594 0.71875Z" fill="#B4D7EE"/>
<path d="M11.8234 14.4828C11.6438 14.3391 11.3203 14.3391 11.1406 14.4828C10.3859 15.0219 7.90625 16.5313 7.90625 16.5313V17.25H15.0938V16.5313C15.0938 16.5313 12.6141 15.0219 11.8234 14.4828Z" fill="#F15744"/>
<path d="M22.6406 21.5625H0.359375C0.14375 21.5625 0 21.7422 0 21.9219V22.6406C0 22.8203 0.14375 23 0.359375 23H22.6406C22.8203 23 23 22.8203 23 22.6406V21.9219C23 21.7422 22.8203 21.5625 22.6406 21.5625Z" fill="#666666"/>
<path d="M7.1875 22.2812H15.8125V23H7.1875V22.2812Z" fill="#E8E8E8"/>
<path d="M7.90625 21.5625H15.0938V22.2812H7.90625V21.5625Z" fill="#D0D0D0"/>
<path d="M10.4578 19.2266H10.9609V19.4781H10.4578V19.2266ZM12.0391 19.2266H12.5422V19.4781H12.0391V19.2266Z" fill="#666666"/>
</g>
<defs>
<clipPath id="clip0_399_448">
<rect width="23" height="23" fill="white"/>
</clipPath>
</defs>
</svg>
