<svg width="28" height="28" viewBox="0 0 28 28" fill="none" xmlns="http://www.w3.org/2000/svg">
<g clip-path="url(#clip0_344_3)">
<path d="M19.25 12.25C19.25 15.155 16.905 17.5 14 17.5C11.095 17.5 8.75 15.155 8.75 12.25C8.75 9.345 11.095 7 14 7C16.905 7 19.25 9.345 19.25 12.25Z" fill="#B3B3B3"/>
<path fill-rule="evenodd" clip-rule="evenodd" d="M28 14C28 21.735 21.735 28 14 28C6.265 28 0 21.735 0 14C0 6.265 6.265 0 14 0C21.735 0 28 6.265 28 14ZM7 24.0625C7.28 23.597 9.9925 19.25 13.9825 19.25C17.955 19.25 20.685 23.6075 20.965 24.0625C22.5923 22.9372 23.9219 21.4335 24.8394 19.6807C25.757 17.9279 26.235 15.9784 26.2325 14C26.2325 7.2275 20.755 1.75 13.9825 1.75C7.21 1.75 1.7325 7.2275 1.7325 14C1.7325 18.165 3.815 21.8575 7 24.0625Z" fill="#B3B3B3"/>
</g>
<defs>
<clipPath id="clip0_344_3">
<rect width="28" height="28" fill="white"/>
</clipPath>
</defs>
</svg>
