<svg width="22" height="22" viewBox="0 0 22 22" fill="none" xmlns="http://www.w3.org/2000/svg">
<path d="M6.88752 1.2877C9.42292 0.237467 12.2717 0.237433 14.8071 1.2876C17.3425 2.33777 19.3569 4.35213 20.4071 6.88752C21.4574 9.42292 21.4574 12.2717 20.4072 14.8071C19.3571 17.3425 17.3427 19.3569 14.8073 20.4071C12.2719 21.4574 9.42317 21.4574 6.88775 20.4072C4.35233 19.3571 2.33793 17.3427 1.2877 14.8073C0.237467 12.2719 0.237433 9.42317 1.2876 6.88775C2.33777 4.35233 4.35213 2.33793 6.88752 1.2877Z" fill="#F2F2F2" stroke="#BDBDBD" stroke-linecap="round" stroke-linejoin="round"/>
<path d="M4.29754 7.03122L3.69274 6.67877C3.64632 6.75838 3.61608 6.84637 3.60375 6.93769C3.59142 7.02901 3.59724 7.12187 3.62088 7.21094C3.64452 7.3 3.68551 7.38353 3.74151 7.45671C3.79751 7.5299 3.8674 7.59131 3.94719 7.63742L4.29754 7.03122ZM4.29859 7.02947L4.64859 6.42327C4.48828 6.33066 4.29781 6.30532 4.11886 6.35281C3.93992 6.40031 3.78708 6.51675 3.69379 6.67667L4.29859 7.02947ZM5.10709 7.49602L5.71154 7.84882C5.75799 7.76918 5.78826 7.68114 5.80059 7.58977C5.81293 7.49839 5.80709 7.40548 5.78341 7.31637C5.75974 7.22726 5.71869 7.14371 5.66263 7.07051C5.60657 6.99731 5.5366 6.9359 5.45674 6.88982L5.10709 7.49602ZM5.10569 7.49812L4.75569 8.10432C4.91596 8.19682 5.10635 8.22209 5.28521 8.17461C5.46407 8.12712 5.61685 8.01074 5.71014 7.85092L5.10569 7.49812ZM3.26749 10.764L2.56749 10.7563C2.56647 10.8488 2.58382 10.9407 2.61854 11.0265C2.65327 11.1123 2.70467 11.1904 2.76977 11.2562C2.83487 11.322 2.91238 11.3743 2.99782 11.41C3.08325 11.4456 3.17491 11.464 3.26749 11.464V10.764ZM3.26749 10.7619V10.0619C3.08322 10.0619 2.90638 10.1345 2.77534 10.264C2.64429 10.3936 2.56961 10.5696 2.56749 10.7538L3.26749 10.7619ZM4.20094 10.7619L4.90094 10.7706C4.90214 10.6779 4.88493 10.5859 4.85029 10.4999C4.81565 10.414 4.76428 10.3357 4.69916 10.2698C4.63403 10.2038 4.55646 10.1514 4.47093 10.1157C4.38541 10.0799 4.29363 10.0615 4.20094 10.0615V10.7619ZM4.20094 10.7643L4.20059 11.4643C4.38473 11.4643 4.56147 11.3918 4.69249 11.2624C4.82352 11.133 4.89828 10.9572 4.90059 10.7731L4.20094 10.7643ZM4.22614 14.538L3.61469 14.8789C3.65985 14.96 3.72069 15.0312 3.79364 15.0886C3.8666 15.1459 3.95022 15.1881 4.03965 15.2128C4.12908 15.2376 4.22253 15.2443 4.31457 15.2325C4.40661 15.2208 4.49541 15.1909 4.57579 15.1446L4.22614 14.538ZM4.22509 14.5363L3.87509 13.9304C3.71596 14.0223 3.59936 14.1731 3.55045 14.3502C3.50153 14.5274 3.52423 14.7166 3.61364 14.8772L4.22509 14.5363ZM5.03359 14.0694L5.64574 13.7299C5.60066 13.6485 5.53983 13.577 5.46681 13.5195C5.39378 13.4619 5.31002 13.4195 5.22042 13.3947C5.13082 13.3698 5.03717 13.3631 4.94493 13.3749C4.8527 13.3866 4.76374 13.4166 4.68324 13.4632L5.03359 14.0694ZM5.03464 14.0718L5.38464 14.678C5.54366 14.5863 5.66028 14.4358 5.70938 14.2589C5.75848 14.082 5.73613 13.8929 5.64714 13.7323L5.03464 14.0718ZM6.95859 17.3545L6.59984 17.9554C6.6795 18.003 6.76781 18.0342 6.85965 18.0473C6.9515 18.0604 7.04503 18.0552 7.13481 18.0318C7.2246 18.0085 7.30885 17.9675 7.38266 17.9113C7.45648 17.8551 7.51839 17.7848 7.56479 17.7045L6.95859 17.3545ZM6.95684 17.3534L6.35064 17.0034C6.25875 17.1625 6.23308 17.3513 6.27918 17.5292C6.32528 17.707 6.43944 17.8596 6.59704 17.954L6.95684 17.3534ZM7.42339 16.5449L7.78424 15.945C7.70455 15.8971 7.61612 15.8655 7.5241 15.8521C7.43208 15.8388 7.33832 15.8439 7.24829 15.8671C7.15827 15.8904 7.07378 15.9314 6.99976 15.9876C6.92574 16.0439 6.86367 16.1144 6.81719 16.1949L7.42339 16.5449ZM7.42549 16.546L8.03169 16.896C8.12345 16.7371 8.14915 16.5485 8.10326 16.3708C8.05738 16.1932 7.94357 16.0407 7.78634 15.9461L7.42549 16.546ZM10.7641 18.4276L10.7557 19.1276C10.8484 19.1287 10.9403 19.1114 11.0262 19.0767C11.1121 19.042 11.1903 18.9907 11.2562 18.9255C11.322 18.8604 11.3744 18.7829 11.4101 18.6974C11.4458 18.6119 11.4641 18.5202 11.4641 18.4276H10.7641ZM10.762 18.4276H10.062C10.062 18.6118 10.1346 18.7886 10.2641 18.9196C10.3935 19.0506 10.5694 19.1254 10.7536 19.1276L10.762 18.4276ZM10.762 17.4941L10.7708 16.7941C10.6781 16.7929 10.5861 16.8101 10.5001 16.8448C10.4141 16.8794 10.3359 16.9308 10.2699 16.9959C10.2039 17.061 10.1516 17.1386 10.1158 17.2241C10.0801 17.3097 10.0617 17.4014 10.0617 17.4941H10.762ZM10.7641 17.4941H11.4641C11.4642 17.31 11.3917 17.1334 11.2623 17.0023C11.133 16.8713 10.9573 16.7965 10.7732 16.7941L10.7641 17.4941ZM14.6117 17.4273L14.9596 18.0345C15.0395 17.9888 15.1097 17.9277 15.166 17.8547C15.2223 17.7818 15.2636 17.6985 15.2876 17.6096C15.3117 17.5207 15.3179 17.4279 15.306 17.3365C15.2941 17.2452 15.2643 17.1571 15.2182 17.0773L14.6117 17.4273ZM14.6099 17.4283L14.0041 17.7783C14.0966 17.9384 14.2487 18.0554 14.4272 18.1038C14.6057 18.1521 14.7961 18.1278 14.9568 18.0363L14.6099 17.4283ZM14.143 16.6198L13.7965 16.0119C13.7164 16.0576 13.6461 16.1187 13.5896 16.1916C13.5332 16.2646 13.4917 16.348 13.4676 16.4371C13.4435 16.5261 13.4372 16.6191 13.4492 16.7106C13.4611 16.8021 13.491 16.8903 13.5372 16.9702L14.143 16.6198ZM14.1455 16.6188L14.7517 16.2688C14.6592 16.1085 14.5069 15.9913 14.3282 15.943C14.1496 15.8946 13.959 15.919 13.7983 16.0108L14.1455 16.6188ZM17.4285 14.6098L18.0364 14.957C18.1281 14.7963 18.1524 14.6058 18.1041 14.4272C18.0558 14.2486 17.9387 14.0964 17.7785 14.0039L17.4285 14.6098ZM17.4274 14.6115L17.0774 15.2181C17.1572 15.2641 17.2453 15.2939 17.3367 15.3058C17.428 15.3177 17.5208 15.3115 17.6098 15.2875C17.6987 15.2634 17.782 15.2221 17.8549 15.1658C17.9278 15.1095 17.9889 15.0394 18.0347 14.9594L17.4274 14.6115ZM16.6189 14.1453L16.011 13.7981C15.9192 13.9589 15.8948 14.1494 15.9431 14.3281C15.9915 14.5067 16.1086 14.659 16.2689 14.7515L16.6189 14.1453ZM16.62 14.1432L16.97 13.537C16.8901 13.4909 16.802 13.461 16.7105 13.4491C16.6191 13.4371 16.5262 13.4434 16.4372 13.4674C16.3482 13.4915 16.2648 13.5329 16.1918 13.5893C16.1189 13.6457 16.0578 13.7159 16.012 13.796L16.62 14.1432ZM18.4274 10.7622L19.1274 10.7535C19.1252 10.5693 19.0504 10.3934 18.9194 10.2639C18.7884 10.1345 18.6116 10.0619 18.4274 10.0619V10.7622ZM18.4274 10.764L18.4277 11.464C18.5204 11.464 18.6121 11.4456 18.6976 11.4099C18.783 11.3742 18.8606 11.3219 18.9257 11.256C18.9908 11.1901 19.0422 11.1119 19.0769 11.026C19.1116 10.9401 19.1288 10.8482 19.1277 10.7556L18.4274 10.764ZM17.4943 10.764L16.7943 10.7731C16.7966 10.9572 16.8714 11.133 17.0024 11.2624C17.1334 11.3918 17.3101 11.4643 17.4943 11.4643V10.764ZM17.4943 10.7615V10.0615C17.4016 10.0615 17.3098 10.0799 17.2243 10.1157C17.1388 10.1514 17.0612 10.2038 16.9961 10.2698C16.9309 10.3357 16.8796 10.414 16.8449 10.4999C16.8103 10.5859 16.7931 10.6779 16.7943 10.7706L17.4943 10.7615ZM17.3536 6.95702L17.9542 6.59722C17.8598 6.43956 17.7073 6.32533 17.5294 6.27916C17.3516 6.233 17.1627 6.25861 17.0036 6.35047L17.3536 6.95702ZM17.3546 6.95842L17.7046 7.56462C17.7849 7.51822 17.8552 7.45633 17.9114 7.38254C17.9675 7.30875 18.0085 7.22454 18.0318 7.1348C18.0552 7.04505 18.0605 6.95156 18.0474 6.85976C18.0343 6.76795 18.0031 6.67967 17.9556 6.60002L17.3546 6.95842ZM16.5461 7.42532L15.9462 7.78582C16.0408 7.9432 16.1933 8.05715 16.3711 8.10311C16.5488 8.14907 16.7375 8.12336 16.8965 8.03152L16.5461 7.42532ZM16.5451 7.42322L16.1951 6.81702C16.1146 6.86351 16.0441 6.92557 15.9878 6.99959C15.9315 7.07361 15.8906 7.1581 15.8673 7.24813C15.844 7.33816 15.8389 7.43192 15.8523 7.52394C15.8657 7.61596 15.8973 7.70439 15.9452 7.78407L16.5451 7.42322ZM14.5364 4.22527L14.8773 3.61382C14.7168 3.5243 14.5274 3.50154 14.3502 3.55046C14.173 3.59938 14.0221 3.71605 13.9302 3.87527L14.5364 4.22527ZM14.5382 4.22632L15.1447 4.57632C15.1911 4.49592 15.2211 4.4071 15.2328 4.31503C15.2446 4.22295 15.2379 4.12945 15.2132 4.03998C15.1885 3.95051 15.1462 3.86685 15.0888 3.79387C15.0315 3.72088 14.9602 3.66004 14.8791 3.61487L14.5382 4.22632ZM14.0716 5.03482L13.7321 5.64732C13.8927 5.73642 14.0819 5.75884 14.2589 5.70973C14.4359 5.66063 14.5865 5.54394 14.6782 5.38482L14.0716 5.03482ZM14.0695 5.03377L13.4633 4.68342C13.4168 4.76394 13.3868 4.85293 13.3751 4.94517C13.3633 5.03742 13.3701 5.13108 13.395 5.22069C13.4198 5.31029 13.4623 5.39405 13.5199 5.46706C13.5775 5.54007 13.649 5.60087 13.7304 5.64592L14.0695 5.03377ZM10.762 3.26767L10.754 2.56767C10.5697 2.56979 10.3937 2.64447 10.2642 2.77552C10.1347 2.90657 10.062 3.0834 10.062 3.26767H10.762ZM10.7641 3.26767H11.4641C11.4641 3.17509 11.4458 3.08343 11.4101 2.998C11.3745 2.91257 11.3222 2.83505 11.2564 2.76995C11.1906 2.70485 11.1125 2.65345 11.0267 2.61873C10.9409 2.58401 10.849 2.56665 10.7564 2.56767L10.7641 3.26767ZM10.7617 4.20112H10.0617C10.0617 4.29382 10.0801 4.38559 10.1158 4.47112C10.1516 4.55664 10.2039 4.63422 10.2699 4.69934C10.3359 4.76446 10.4141 4.81583 10.5001 4.85047C10.5861 4.88511 10.6781 4.90232 10.7708 4.90112L10.7617 4.20112ZM10.7645 4.20112L10.7732 4.90112C10.9574 4.89882 11.1332 4.82405 11.2626 4.69303C11.392 4.562 11.4645 4.38526 11.4645 4.20112H10.7645ZM7.03139 4.29772L7.63759 3.94772C7.5915 3.86791 7.53012 3.79798 7.45694 3.74195C7.38377 3.68592 7.30025 3.64489 7.21118 3.62121C7.12211 3.59754 7.02924 3.59169 6.93791 3.60399C6.84657 3.6163 6.75856 3.64652 6.67894 3.69292L7.03139 4.29772ZM7.49829 5.10587L7.85109 5.71067C8.0111 5.61738 8.12761 5.46447 8.17511 5.28544C8.2226 5.10642 8.19721 4.91586 8.10449 4.75552L7.49829 5.10587ZM7.02929 4.29877L6.67684 3.69397C6.51695 3.7872 6.4005 3.93995 6.35295 4.11882C6.3054 4.29768 6.33061 4.4881 6.42309 4.64842L7.02929 4.29877ZM7.49584 5.10727L6.88964 5.45727C6.93575 5.5371 6.99717 5.60704 7.07039 5.66306C7.1436 5.71909 7.22716 5.7601 7.31627 5.78374C7.40538 5.80739 7.49828 5.8132 7.58964 5.80084C7.681 5.78848 7.76901 5.75819 7.84864 5.71172L7.49584 5.10727ZM4.90234 7.38402L4.90339 7.38227L3.69379 6.67667L3.69274 6.67877L4.90234 7.38402ZM3.94859 7.63602L4.75709 8.10257L5.45709 6.88982L4.64859 6.42327L3.94859 7.63602ZM4.50229 7.14322L4.50089 7.14567L5.71014 7.85127L5.71154 7.84882L4.50229 7.14322ZM5.45569 6.89227L4.64754 6.42537L3.94754 7.63777L4.75534 8.10467L5.45569 6.89227ZM3.96749 10.772V10.7703L2.56749 10.7538V10.7563L3.96749 10.772ZM3.26749 11.4622H4.20094V10.0622H3.26714L3.26749 11.4622ZM3.50094 10.7531V10.7559L4.90094 10.7734V10.771L3.50094 10.7531ZM4.20094 10.0647L3.26749 10.0643V11.464L4.20059 11.4643L4.20094 10.0647ZM4.83759 14.1978L4.83654 14.1961L3.61364 14.8772L3.61469 14.8789L4.83759 14.1978ZM4.57509 15.1428L5.38359 14.6759L4.68324 13.4632L3.87474 13.9308L4.57509 15.1428ZM4.42109 14.4092L4.42249 14.4113L5.64714 13.7323L5.64574 13.7306L4.42109 14.4092ZM4.68464 13.4656L3.87614 13.9322L4.57614 15.1449L5.38464 14.678L4.68464 13.4656ZM7.31734 16.7535L7.31664 16.7532L6.59739 17.9544L6.59984 17.9558L7.31734 16.7535ZM7.56304 17.7034L8.02959 16.8949L6.81719 16.1949L6.35064 17.0034L7.56304 17.7034ZM7.06254 17.1448L7.06464 17.1462L7.78634 15.9461L7.78424 15.9454L7.06254 17.1448ZM6.81929 16.1963L6.35239 17.0048L7.56479 17.7045L8.03169 16.896L6.81929 16.1963ZM10.7725 17.7279H10.7704L10.7536 19.1276L10.7554 19.1279C10.7559 19.1279 10.7559 19.1279 10.7554 19.1279L10.7725 17.7279ZM11.462 18.4276V17.4938L10.0617 17.4941L10.062 18.4276H11.462ZM10.7529 18.1941H10.7554L10.7732 16.7941H10.7708L10.7529 18.1941ZM10.0641 17.4941V18.4276H11.4641V17.4941H10.0641ZM14.2641 16.82L14.2631 16.8204L14.9568 18.0363L14.9596 18.0345L14.2641 16.82ZM15.2161 17.0783L14.7492 16.2702L13.5372 16.9702L14.0041 17.779L15.2161 17.0783ZM14.4902 17.2285C14.4909 17.2278 14.4915 17.2274 14.492 17.2274L14.4927 17.2271L13.7983 16.0112L13.7969 16.0122L14.4902 17.2285ZM13.5389 16.9688L14.0055 17.7773L15.2182 17.0773L14.7517 16.2688L13.5389 16.9688ZM16.8202 14.2633V14.264L18.0347 14.9594L18.0364 14.957L16.8202 14.2633ZM17.7771 14.0057L16.9686 13.5391L16.2689 14.7515L17.0774 15.2181L17.7771 14.0057ZM17.2269 14.4929L17.2272 14.4918L17.2279 14.4904L16.012 13.796L16.011 13.7981L17.2269 14.4929ZM16.27 14.7494L17.0785 15.2163L17.7785 14.0039L16.97 13.537L16.27 14.7494ZM17.7274 10.7706V10.7727L19.1274 10.7559V10.7538L17.7274 10.7706ZM18.4274 10.0643H17.4939L17.4943 11.4643L18.4277 11.464L18.4274 10.0643ZM18.1943 10.7556V10.7531L16.7943 10.771V10.7734L18.1943 10.7556ZM17.4939 11.4619L18.4274 11.4622V10.0619L17.4943 10.0622L17.4939 11.4619ZM16.753 7.31682L16.7533 7.31752L17.9556 6.60002L17.9542 6.59722L16.753 7.31682ZM17.0043 6.35257L16.1958 6.81947L16.8965 8.03152L17.705 7.56497L17.0043 6.35257ZM17.146 7.06517V7.06447L17.1446 7.06272L15.9452 7.78442L15.9462 7.78652L17.146 7.06517ZM16.8947 8.02977L17.7032 7.56322L17.0036 6.35047L16.1951 6.81702L16.8947 8.02977ZM14.1959 4.83672L14.1976 4.83777L14.8791 3.61487L14.878 3.61417L14.8773 3.61382L14.1959 4.83672ZM13.932 3.87632L13.4654 4.68482L14.6782 5.38482L15.1447 4.57632L13.932 3.87632ZM14.4115 4.42232L14.409 4.42127L13.7304 5.64592L13.7325 5.64697L14.4115 4.42232ZM14.6757 5.38377L15.1426 4.57527L13.9302 3.87527L13.4633 4.68342L14.6757 5.38377ZM10.7697 3.96767H10.7718L10.7564 2.56767H10.754L10.7697 3.96767ZM11.4617 4.20112V3.26767H10.062L10.0617 4.20112H11.4617ZM10.7557 3.50112H10.7526L10.7708 4.90112H10.7732L10.7557 3.50112ZM10.0641 3.26767V4.20112H11.4645L11.4641 3.26767H10.0641ZM6.42519 4.64772L6.89209 5.45622L8.10449 4.75587L7.63759 3.94737L6.42519 4.64772ZM7.38209 4.90322L7.38384 4.90252L6.67894 3.69292L6.67684 3.69397L7.38209 4.90322ZM8.10239 4.75727L7.63584 3.94877L6.42309 4.64877L6.88964 5.45727L8.10239 4.75727ZM7.14549 4.50107L7.14304 4.50282L7.84899 5.71172L7.85109 5.71067L7.14549 4.50107Z" fill="#4F4F4F"/>
<path d="M14.5231 7.19629C14.5801 7.12337 14.6221 7.03988 14.6466 6.95064C14.6711 6.86141 14.6777 6.76819 14.666 6.6764C14.6542 6.5846 14.6244 6.49604 14.5782 6.41584C14.532 6.33565 14.4704 6.2654 14.3969 6.20918C14.3234 6.15296 14.2395 6.11187 14.15 6.08829C14.0605 6.06471 13.9672 6.05911 13.8755 6.07181C13.7839 6.08452 13.6956 6.11527 13.6159 6.1623C13.5362 6.20932 13.4666 6.27169 13.4112 6.34579L14.5231 7.19629ZM11.1428 9.31029C11.0858 9.3832 11.0439 9.46669 11.0194 9.55593C10.9948 9.64516 10.9883 9.73838 11 9.83017C11.0117 9.92197 11.0416 10.0105 11.0877 10.0907C11.1339 10.1709 11.1956 10.2412 11.2691 10.2974C11.3426 10.3536 11.4265 10.3947 11.516 10.4183C11.6055 10.4419 11.6988 10.4475 11.7904 10.4348C11.8821 10.4221 11.9703 10.3913 12.05 10.3443C12.1297 10.2972 12.1993 10.2349 12.2548 10.1608L11.1428 9.31029ZM16.9913 15.1469C17.1527 15.2387 17.344 15.2627 17.523 15.2136C17.7021 15.1644 17.8543 15.0461 17.9461 14.8847C18.038 14.7234 18.062 14.5321 18.0128 14.353C17.9636 14.174 17.8454 14.0218 17.684 13.9299L16.9913 15.1469ZM12.4119 10.9304C12.2506 10.8386 12.0593 10.8147 11.8803 10.8639C11.7013 10.9131 11.5491 11.0314 11.4573 11.1928C11.3655 11.3541 11.3416 11.5454 11.3908 11.7244C11.44 11.9034 11.5583 12.0556 11.7196 12.1474L12.4119 10.9304ZM10.1474 10.8475C10.1474 10.6618 10.2212 10.4838 10.3525 10.3525C10.4837 10.2212 10.6618 10.1475 10.8474 10.1475V8.74748C10.2905 8.74748 9.75634 8.96873 9.36251 9.36256C8.96869 9.75639 8.74744 10.2905 8.74744 10.8475H10.1474ZM10.8474 11.5475C10.6618 11.5475 10.4837 11.4737 10.3525 11.3425C10.2212 11.2112 10.1474 11.0331 10.1474 10.8475H8.74744C8.74744 11.4044 8.96869 11.9386 9.36251 12.3324C9.75634 12.7262 10.2905 12.9475 10.8474 12.9475V11.5475ZM11.5474 10.8475C11.5474 11.0331 11.4737 11.2112 11.3424 11.3425C11.2111 11.4737 11.0331 11.5475 10.8474 11.5475V12.9475C11.4044 12.9475 11.9385 12.7262 12.3324 12.3324C12.7262 11.9386 12.9474 11.4044 12.9474 10.8475H11.5474ZM10.8474 10.1475C11.0331 10.1475 11.2111 10.2212 11.3424 10.3525C11.4737 10.4838 11.5474 10.6618 11.5474 10.8475H12.9474C12.9474 10.2905 12.7262 9.75639 12.3324 9.36256C11.9385 8.96873 11.4044 8.74748 10.8474 8.74748V10.1475ZM13.4108 6.34544L11.1428 9.31029L12.2548 10.1608L14.5231 7.19629L13.4108 6.34544ZM17.684 13.9299L12.4112 10.9304L11.7189 12.1474L16.9913 15.1469L17.684 13.9299Z" fill="#EB5757"/>
</svg>
